<?xml version="1.0" encoding="UTF-8" standalone="no"?>
<!DOCTYPE svg PUBLIC "-//W3C//DTD SVG 1.1//EN"
 "http://www.w3.org/Graphics/SVG/1.1/DTD/svg11.dtd">
<!-- Generated by graphviz version 13.1.2 (20250809.0930)
 -->
<!-- Title: snakemake_dag Pages: 1 -->
<svg width="2420pt" height="332pt"
 viewBox="0.00 0.00 2420.00 332.00" xmlns="http://www.w3.org/2000/svg" xmlns:xlink="http://www.w3.org/1999/xlink">
<g id="graph0" class="graph" transform="scale(1 1) rotate(0) translate(4 328)">
<title>snakemake_dag</title>
<polygon fill="white" stroke="none" points="-4,4 -4,-328 2416.12,-328 2416.12,4 -4,4"/>
<!-- 0 -->
<g id="node1" class="node">
<title>0</title>
<path fill="none" stroke="#d85656" stroke-width="2" d="M1089.62,-36C1089.62,-36 1059.62,-36 1059.62,-36 1053.62,-36 1047.62,-30 1047.62,-24 1047.62,-24 1047.62,-12 1047.62,-12 1047.62,-6 1053.62,0 1059.62,0 1059.62,0 1089.62,0 1089.62,0 1095.62,0 1101.62,-6 1101.62,-12 1101.62,-12 1101.62,-24 1101.62,-24 1101.62,-30 1095.62,-36 1089.62,-36"/>
<text xml:space="preserve" text-anchor="middle" x="1074.62" y="-14.88" font-family="sans" font-size="10.00">all</text>
</g>
<!-- 1 -->
<g id="node2" class="node">
<title>1</title>
<path fill="none" stroke="#5692d8" stroke-width="2" stroke-dasharray="5,2" d="M309.25,-180C309.25,-180 246,-180 246,-180 240,-180 234,-174 234,-168 234,-168 234,-156 234,-156 234,-150 240,-144 246,-144 246,-144 309.25,-144 309.25,-144 315.25,-144 321.25,-150 321.25,-156 321.25,-156 321.25,-168 321.25,-168 321.25,-174 315.25,-180 309.25,-180"/>
<text xml:space="preserve" text-anchor="middle" x="277.62" y="-165.25" font-family="sans" font-size="10.00">stats_seqkit</text>
<text xml:space="preserve" text-anchor="middle" x="277.62" y="-152.5" font-family="sans" font-size="10.00">sample: MAG1</text>
</g>
<!-- 1&#45;&gt;0 -->
<g id="edge1" class="edge">
<title>1&#45;&gt;0</title>
<path fill="none" stroke="grey" stroke-width="2" d="M280.95,-143.14C285.87,-122.22 297.29,-88.33 321.62,-72 380.99,-32.17 886.15,-21.73 1034.08,-19.52"/>
<polygon fill="grey" stroke="grey" stroke-width="2" points="1033.89,-23.02 1043.84,-19.38 1033.79,-16.02 1033.89,-23.02"/>
</g>
<!-- 8 -->
<g id="node9" class="node">
<title>8</title>
<path fill="none" stroke="#56d873" stroke-width="2" d="M486.25,-108C486.25,-108 441,-108 441,-108 435,-108 429,-102 429,-96 429,-96 429,-84 429,-84 429,-78 435,-72 441,-72 441,-72 486.25,-72 486.25,-72 492.25,-72 498.25,-78 498.25,-84 498.25,-84 498.25,-96 498.25,-96 498.25,-102 492.25,-108 486.25,-108"/>
<text xml:space="preserve" text-anchor="middle" x="463.62" y="-86.88" font-family="sans" font-size="10.00">park_score</text>
</g>
<!-- 1&#45;&gt;8 -->
<g id="edge36" class="edge">
<title>1&#45;&gt;8</title>
<path fill="none" stroke="grey" stroke-width="2" d="M322.16,-144.77C347.67,-135.42 380.54,-123.26 416.63,-109.5"/>
<polygon fill="grey" stroke="grey" stroke-width="2" points="417.53,-112.9 425.62,-106.06 415.03,-106.36 417.53,-112.9"/>
</g>
<!-- 2 -->
<g id="node3" class="node">
<title>2</title>
<path fill="none" stroke="#5692d8" stroke-width="2" d="M87.25,-180C87.25,-180 12,-180 12,-180 6,-180 0,-174 0,-168 0,-168 0,-156 0,-156 0,-150 6,-144 12,-144 12,-144 87.25,-144 87.25,-144 93.25,-144 99.25,-150 99.25,-156 99.25,-156 99.25,-168 99.25,-168 99.25,-174 93.25,-180 87.25,-180"/>
<text xml:space="preserve" text-anchor="middle" x="49.62" y="-165.25" font-family="sans" font-size="10.00">stats_seqkit</text>
<text xml:space="preserve" text-anchor="middle" x="49.62" y="-152.5" font-family="sans" font-size="10.00">sample: MAG209</text>
</g>
<!-- 2&#45;&gt;0 -->
<g id="edge2" class="edge">
<title>2&#45;&gt;0</title>
<path fill="none" stroke="grey" stroke-width="2" d="M58.35,-143.2C69.82,-121.98 92.15,-87.47 122.62,-72 204.72,-30.33 863.11,-21.06 1034.15,-19.34"/>
<polygon fill="grey" stroke="grey" stroke-width="2" points="1033.95,-22.85 1043.92,-19.25 1033.89,-15.85 1033.95,-22.85"/>
</g>
<!-- 9 -->
<g id="node10" class="node">
<title>9</title>
<path fill="none" stroke="#56d873" stroke-width="2" d="M189.25,-108C189.25,-108 144,-108 144,-108 138,-108 132,-102 132,-96 132,-96 132,-84 132,-84 132,-78 138,-72 144,-72 144,-72 189.25,-72 189.25,-72 195.25,-72 201.25,-78 201.25,-84 201.25,-84 201.25,-96 201.25,-96 201.25,-102 195.25,-108 189.25,-108"/>
<text xml:space="preserve" text-anchor="middle" x="166.62" y="-86.88" font-family="sans" font-size="10.00">park_score</text>
</g>
<!-- 2&#45;&gt;9 -->
<g id="edge38" class="edge">
<title>2&#45;&gt;9</title>
<path fill="none" stroke="grey" stroke-width="2" d="M79.45,-143.15C93.62,-134.68 110.76,-124.42 126.08,-115.25"/>
<polygon fill="grey" stroke="grey" stroke-width="2" points="127.47,-118.5 134.26,-110.37 123.88,-112.5 127.47,-118.5"/>
</g>
<!-- 3 -->
<g id="node4" class="node">
<title>3</title>
<path fill="none" stroke="#5692d8" stroke-width="2" d="M543.25,-180C543.25,-180 468,-180 468,-180 462,-180 456,-174 456,-168 456,-168 456,-156 456,-156 456,-150 462,-144 468,-144 468,-144 543.25,-144 543.25,-144 549.25,-144 555.25,-150 555.25,-156 555.25,-156 555.25,-168 555.25,-168 555.25,-174 549.25,-180 543.25,-180"/>
<text xml:space="preserve" text-anchor="middle" x="505.62" y="-165.25" font-family="sans" font-size="10.00">stats_seqkit</text>
<text xml:space="preserve" text-anchor="middle" x="505.62" y="-152.5" font-family="sans" font-size="10.00">sample: MAG665</text>
</g>
<!-- 3&#45;&gt;0 -->
<g id="edge3" class="edge">
<title>3&#45;&gt;0</title>
<path fill="none" stroke="grey" stroke-width="2" d="M518.22,-143.06C534.09,-122.05 563.44,-88.08 597.62,-72 674.75,-35.71 933.27,-23.58 1033.98,-20.16"/>
<polygon fill="grey" stroke="grey" stroke-width="2" points="1033.93,-23.67 1043.81,-19.84 1033.7,-16.67 1033.93,-23.67"/>
</g>
<!-- 10 -->
<g id="node11" class="node">
<title>10</title>
<path fill="none" stroke="#56d873" stroke-width="2" d="M399.25,-108C399.25,-108 354,-108 354,-108 348,-108 342,-102 342,-96 342,-96 342,-84 342,-84 342,-78 348,-72 354,-72 354,-72 399.25,-72 399.25,-72 405.25,-72 411.25,-78 411.25,-84 411.25,-84 411.25,-96 411.25,-96 411.25,-102 405.25,-108 399.25,-108"/>
<text xml:space="preserve" text-anchor="middle" x="376.62" y="-86.88" font-family="sans" font-size="10.00">park_score</text>
</g>
<!-- 3&#45;&gt;10 -->
<g id="edge40" class="edge">
<title>3&#45;&gt;10</title>
<path fill="none" stroke="grey" stroke-width="2" d="M472.74,-143.15C456.97,-134.6 437.85,-124.22 420.83,-114.99"/>
<polygon fill="grey" stroke="grey" stroke-width="2" points="422.57,-111.95 412.11,-110.26 419.23,-118.1 422.57,-111.95"/>
</g>
<!-- 4 -->
<g id="node5" class="node">
<title>4</title>
<path fill="none" stroke="#56d8a9" stroke-width="2" d="M660.25,-180C660.25,-180 585,-180 585,-180 579,-180 573,-174 573,-168 573,-168 573,-156 573,-156 573,-150 579,-144 585,-144 585,-144 660.25,-144 660.25,-144 666.25,-144 672.25,-150 672.25,-156 672.25,-156 672.25,-168 672.25,-168 672.25,-174 666.25,-180 660.25,-180"/>
<text xml:space="preserve" text-anchor="middle" x="622.62" y="-165.25" font-family="sans" font-size="10.00">quality_checkm2</text>
<text xml:space="preserve" text-anchor="middle" x="622.62" y="-152.5" font-family="sans" font-size="10.00">sample: MAG1</text>
</g>
<!-- 4&#45;&gt;0 -->
<g id="edge4" class="edge">
<title>4&#45;&gt;0</title>
<path fill="none" stroke="grey" stroke-width="2" d="M613,-143.25C603.68,-123.38 593.29,-91.43 610.62,-72 638.61,-40.63 925.75,-25.31 1033.8,-20.61"/>
<polygon fill="grey" stroke="grey" stroke-width="2" points="1033.78,-24.12 1043.62,-20.2 1033.49,-17.13 1033.78,-24.12"/>
</g>
<!-- 4&#45;&gt;8 -->
<g id="edge37" class="edge">
<title>4&#45;&gt;8</title>
<path fill="none" stroke="grey" stroke-width="2" d="M582.09,-143.15C560.41,-133.61 533.59,-121.8 510.96,-111.84"/>
<polygon fill="grey" stroke="grey" stroke-width="2" points="512.55,-108.71 501.98,-107.89 509.73,-115.12 512.55,-108.71"/>
</g>
<!-- 32 -->
<g id="node33" class="node">
<title>32</title>
<path fill="none" stroke="#70d856" stroke-width="2" d="M1439.88,-108C1439.88,-108 1371.38,-108 1371.38,-108 1365.38,-108 1359.38,-102 1359.38,-96 1359.38,-96 1359.38,-84 1359.38,-84 1359.38,-78 1365.38,-72 1371.38,-72 1371.38,-72 1439.88,-72 1439.88,-72 1445.88,-72 1451.88,-78 1451.88,-84 1451.88,-84 1451.88,-96 1451.88,-96 1451.88,-102 1445.88,-108 1439.88,-108"/>
<text xml:space="preserve" text-anchor="middle" x="1405.62" y="-86.88" font-family="sans" font-size="10.00">mimag_classify</text>
</g>
<!-- 4&#45;&gt;32 -->
<g id="edge57" class="edge">
<title>4&#45;&gt;32</title>
<path fill="none" stroke="grey" stroke-width="2" d="M673.08,-145.47C675.62,-144.92 678.14,-144.42 680.62,-144 969.97,-94.5 1054,-157.78 1345.76,-108.39"/>
<polygon fill="grey" stroke="grey" stroke-width="2" points="1346.22,-111.86 1355.48,-106.71 1345.03,-104.96 1346.22,-111.86"/>
</g>
<!-- 5 -->
<g id="node6" class="node">
<title>5</title>
<path fill="none" stroke="#d87556" stroke-width="2" d="M432.25,-252C432.25,-252 345,-252 345,-252 339,-252 333,-246 333,-240 333,-240 333,-228 333,-228 333,-222 339,-216 345,-216 345,-216 432.25,-216 432.25,-216 438.25,-216 444.25,-222 444.25,-228 444.25,-228 444.25,-240 444.25,-240 444.25,-246 438.25,-252 432.25,-252"/>
<text xml:space="preserve" text-anchor="middle" x="388.62" y="-230.88" font-family="sans" font-size="10.00">check_checkm2_db</text>
</g>
<!-- 5&#45;&gt;4 -->
<g id="edge33" class="edge">
<title>5&#45;&gt;4</title>
<path fill="none" stroke="grey" stroke-width="2" d="M444.97,-216.14C479.69,-205.76 524.26,-192.43 560.07,-181.71"/>
<polygon fill="grey" stroke="grey" stroke-width="2" points="560.86,-185.13 569.44,-178.91 558.86,-178.42 560.86,-185.13"/>
</g>
<!-- 6 -->
<g id="node7" class="node">
<title>6</title>
<path fill="none" stroke="#56d8a9" stroke-width="2" d="M204.25,-180C204.25,-180 129,-180 129,-180 123,-180 117,-174 117,-168 117,-168 117,-156 117,-156 117,-150 123,-144 129,-144 129,-144 204.25,-144 204.25,-144 210.25,-144 216.25,-150 216.25,-156 216.25,-156 216.25,-168 216.25,-168 216.25,-174 210.25,-180 204.25,-180"/>
<text xml:space="preserve" text-anchor="middle" x="166.62" y="-165.25" font-family="sans" font-size="10.00">quality_checkm2</text>
<text xml:space="preserve" text-anchor="middle" x="166.62" y="-152.5" font-family="sans" font-size="10.00">sample: MAG209</text>
</g>
<!-- 5&#45;&gt;6 -->
<g id="edge34" class="edge">
<title>5&#45;&gt;6</title>
<path fill="none" stroke="grey" stroke-width="2" d="M332.03,-215.15C300.59,-205.24 261.42,-192.89 229.08,-182.69"/>
<polygon fill="grey" stroke="grey" stroke-width="2" points="230.53,-179.48 219.94,-179.81 228.43,-186.16 230.53,-179.48"/>
</g>
<!-- 7 -->
<g id="node8" class="node">
<title>7</title>
<path fill="none" stroke="#56d8a9" stroke-width="2" d="M426.25,-180C426.25,-180 351,-180 351,-180 345,-180 339,-174 339,-168 339,-168 339,-156 339,-156 339,-150 345,-144 351,-144 351,-144 426.25,-144 426.25,-144 432.25,-144 438.25,-150 438.25,-156 438.25,-156 438.25,-168 438.25,-168 438.25,-174 432.25,-180 426.25,-180"/>
<text xml:space="preserve" text-anchor="middle" x="388.62" y="-165.25" font-family="sans" font-size="10.00">quality_checkm2</text>
<text xml:space="preserve" text-anchor="middle" x="388.62" y="-152.5" font-family="sans" font-size="10.00">sample: MAG665</text>
</g>
<!-- 5&#45;&gt;7 -->
<g id="edge35" class="edge">
<title>5&#45;&gt;7</title>
<path fill="none" stroke="grey" stroke-width="2" d="M388.62,-215.34C388.62,-208.75 388.62,-201.08 388.62,-193.67"/>
<polygon fill="grey" stroke="grey" stroke-width="2" points="392.13,-193.93 388.63,-183.93 385.13,-193.93 392.13,-193.93"/>
</g>
<!-- 6&#45;&gt;0 -->
<g id="edge5" class="edge">
<title>6&#45;&gt;0</title>
<path fill="none" stroke="grey" stroke-width="2" d="M184.28,-143.15C206.6,-121.89 247.24,-87.32 289.62,-72 428.55,-21.78 893.11,-18.59 1033.86,-18.8"/>
<polygon fill="grey" stroke="grey" stroke-width="2" points="1033.79,-22.3 1043.8,-18.83 1033.8,-15.3 1033.79,-22.3"/>
</g>
<!-- 6&#45;&gt;9 -->
<g id="edge39" class="edge">
<title>6&#45;&gt;9</title>
<path fill="none" stroke="grey" stroke-width="2" d="M166.62,-143.34C166.62,-136.75 166.62,-129.08 166.62,-121.67"/>
<polygon fill="grey" stroke="grey" stroke-width="2" points="170.13,-121.93 166.63,-111.93 163.13,-121.93 170.13,-121.93"/>
</g>
<!-- 33 -->
<g id="node34" class="node">
<title>33</title>
<path fill="none" stroke="#70d856" stroke-width="2" d="M710.88,-108C710.88,-108 642.38,-108 642.38,-108 636.38,-108 630.38,-102 630.38,-96 630.38,-96 630.38,-84 630.38,-84 630.38,-78 636.38,-72 642.38,-72 642.38,-72 710.88,-72 710.88,-72 716.88,-72 722.88,-78 722.88,-84 722.88,-84 722.88,-96 722.88,-96 722.88,-102 716.88,-108 710.88,-108"/>
<text xml:space="preserve" text-anchor="middle" x="676.62" y="-86.88" font-family="sans" font-size="10.00">mimag_classify</text>
</g>
<!-- 6&#45;&gt;33 -->
<g id="edge60" class="edge">
<title>6&#45;&gt;33</title>
<path fill="none" stroke="grey" stroke-width="2" d="M217.11,-145.66C219.64,-145.06 222.16,-144.5 224.62,-144 262.19,-136.35 502.55,-109.84 616.65,-97.46"/>
<polygon fill="grey" stroke="grey" stroke-width="2" points="617.02,-100.94 626.58,-96.39 616.27,-93.98 617.02,-100.94"/>
</g>
<!-- 7&#45;&gt;0 -->
<g id="edge6" class="edge">
<title>7&#45;&gt;0</title>
<path fill="none" stroke="grey" stroke-width="2" d="M364.22,-143.27C340.94,-124.27 312.22,-93.91 332.62,-72 380.63,-20.44 885.8,-18.27 1033.99,-18.75"/>
<polygon fill="grey" stroke="grey" stroke-width="2" points="1033.76,-22.25 1043.77,-18.79 1033.78,-15.25 1033.76,-22.25"/>
</g>
<!-- 7&#45;&gt;10 -->
<g id="edge41" class="edge">
<title>7&#45;&gt;10</title>
<path fill="none" stroke="grey" stroke-width="2" d="M385.6,-143.34C384.47,-136.75 383.15,-129.08 381.88,-121.67"/>
<polygon fill="grey" stroke="grey" stroke-width="2" points="385.34,-121.15 380.21,-111.89 378.45,-122.33 385.34,-121.15"/>
</g>
<!-- 34 -->
<g id="node35" class="node">
<title>34</title>
<path fill="none" stroke="#70d856" stroke-width="2" d="M821.88,-108C821.88,-108 753.38,-108 753.38,-108 747.38,-108 741.38,-102 741.38,-96 741.38,-96 741.38,-84 741.38,-84 741.38,-78 747.38,-72 753.38,-72 753.38,-72 821.88,-72 821.88,-72 827.88,-72 833.88,-78 833.88,-84 833.88,-84 833.88,-96 833.88,-96 833.88,-102 827.88,-108 821.88,-108"/>
<text xml:space="preserve" text-anchor="middle" x="787.62" y="-86.88" font-family="sans" font-size="10.00">mimag_classify</text>
</g>
<!-- 7&#45;&gt;34 -->
<g id="edge63" class="edge">
<title>7&#45;&gt;34</title>
<path fill="none" stroke="grey" stroke-width="2" d="M439.12,-145.69C441.65,-145.08 444.16,-144.51 446.62,-144 567.59,-118.8 604.4,-133.61 727.79,-108.58"/>
<polygon fill="grey" stroke="grey" stroke-width="2" points="728.38,-112.03 737.45,-106.56 726.95,-105.18 728.38,-112.03"/>
</g>
<!-- 8&#45;&gt;0 -->
<g id="edge7" class="edge">
<title>8&#45;&gt;0</title>
<path fill="none" stroke="grey" stroke-width="2" d="M499.2,-75.55C503.68,-74.19 508.23,-72.96 512.62,-72 704.57,-30.29 940.44,-21.4 1033.81,-19.51"/>
<polygon fill="grey" stroke="grey" stroke-width="2" points="1033.82,-23.01 1043.75,-19.33 1033.69,-16.01 1033.82,-23.01"/>
</g>
<!-- 9&#45;&gt;0 -->
<g id="edge8" class="edge">
<title>9&#45;&gt;0</title>
<path fill="none" stroke="grey" stroke-width="2" d="M202.04,-76.51C208.17,-74.73 214.54,-73.13 220.62,-72 379.79,-42.46 886.92,-24.8 1034.17,-20.21"/>
<polygon fill="grey" stroke="grey" stroke-width="2" points="1033.98,-23.72 1043.87,-19.91 1033.76,-16.72 1033.98,-23.72"/>
</g>
<!-- 10&#45;&gt;0 -->
<g id="edge9" class="edge">
<title>10&#45;&gt;0</title>
<path fill="none" stroke="grey" stroke-width="2" d="M412.03,-74.07C414.57,-73.28 417.12,-72.58 419.62,-72 537.44,-44.59 909.49,-26.22 1033.76,-20.73"/>
<polygon fill="grey" stroke="grey" stroke-width="2" points="1033.8,-24.23 1043.64,-20.29 1033.49,-17.23 1033.8,-24.23"/>
</g>
<!-- 11 -->
<g id="node12" class="node">
<title>11</title>
<path fill="none" stroke="#8fd856" stroke-width="2" d="M1931.25,-108C1931.25,-108 1868,-108 1868,-108 1862,-108 1856,-102 1856,-96 1856,-96 1856,-84 1856,-84 1856,-78 1862,-72 1868,-72 1868,-72 1931.25,-72 1931.25,-72 1937.25,-72 1943.25,-78 1943.25,-84 1943.25,-84 1943.25,-96 1943.25,-96 1943.25,-102 1937.25,-108 1931.25,-108"/>
<text xml:space="preserve" text-anchor="middle" x="1899.62" y="-93.25" font-family="sans" font-size="10.00">gunc_run</text>
<text xml:space="preserve" text-anchor="middle" x="1899.62" y="-80.5" font-family="sans" font-size="10.00">sample: MAG1</text>
</g>
<!-- 11&#45;&gt;0 -->
<g id="edge10" class="edge">
<title>11&#45;&gt;0</title>
<path fill="none" stroke="grey" stroke-width="2" d="M1855.28,-73.7C1852.71,-73.07 1850.14,-72.49 1847.62,-72 1705.15,-44.27 1253.53,-25.63 1115.26,-20.46"/>
<polygon fill="grey" stroke="grey" stroke-width="2" points="1115.66,-16.97 1105.53,-20.1 1115.4,-23.97 1115.66,-16.97"/>
</g>
<!-- 12 -->
<g id="node13" class="node">
<title>12</title>
<path fill="none" stroke="#d8ac56" stroke-width="2" d="M1821.75,-180C1821.75,-180 1755.5,-180 1755.5,-180 1749.5,-180 1743.5,-174 1743.5,-168 1743.5,-168 1743.5,-156 1743.5,-156 1743.5,-150 1749.5,-144 1755.5,-144 1755.5,-144 1821.75,-144 1821.75,-144 1827.75,-144 1833.75,-150 1833.75,-156 1833.75,-156 1833.75,-168 1833.75,-168 1833.75,-174 1827.75,-180 1821.75,-180"/>
<text xml:space="preserve" text-anchor="middle" x="1788.62" y="-158.88" font-family="sans" font-size="10.00">check_gunc_db</text>
</g>
<!-- 12&#45;&gt;11 -->
<g id="edge42" class="edge">
<title>12&#45;&gt;11</title>
<path fill="none" stroke="grey" stroke-width="2" d="M1816.92,-143.15C1830.23,-134.76 1846.31,-124.62 1860.74,-115.52"/>
<polygon fill="grey" stroke="grey" stroke-width="2" points="1862.23,-118.72 1868.82,-110.43 1858.49,-112.8 1862.23,-118.72"/>
</g>
<!-- 13 -->
<g id="node14" class="node">
<title>13</title>
<path fill="none" stroke="#8fd856" stroke-width="2" d="M1709.25,-108C1709.25,-108 1634,-108 1634,-108 1628,-108 1622,-102 1622,-96 1622,-96 1622,-84 1622,-84 1622,-78 1628,-72 1634,-72 1634,-72 1709.25,-72 1709.25,-72 1715.25,-72 1721.25,-78 1721.25,-84 1721.25,-84 1721.25,-96 1721.25,-96 1721.25,-102 1715.25,-108 1709.25,-108"/>
<text xml:space="preserve" text-anchor="middle" x="1671.62" y="-93.25" font-family="sans" font-size="10.00">gunc_run</text>
<text xml:space="preserve" text-anchor="middle" x="1671.62" y="-80.5" font-family="sans" font-size="10.00">sample: MAG209</text>
</g>
<!-- 12&#45;&gt;13 -->
<g id="edge43" class="edge">
<title>12&#45;&gt;13</title>
<path fill="none" stroke="grey" stroke-width="2" d="M1758.8,-143.15C1744.63,-134.68 1727.49,-124.42 1712.17,-115.25"/>
<polygon fill="grey" stroke="grey" stroke-width="2" points="1714.37,-112.5 1703.99,-110.37 1710.78,-118.5 1714.37,-112.5"/>
</g>
<!-- 14 -->
<g id="node15" class="node">
<title>14</title>
<path fill="none" stroke="#8fd856" stroke-width="2" d="M1826.25,-108C1826.25,-108 1751,-108 1751,-108 1745,-108 1739,-102 1739,-96 1739,-96 1739,-84 1739,-84 1739,-78 1745,-72 1751,-72 1751,-72 1826.25,-72 1826.25,-72 1832.25,-72 1838.25,-78 1838.25,-84 1838.25,-84 1838.25,-96 1838.25,-96 1838.25,-102 1832.25,-108 1826.25,-108"/>
<text xml:space="preserve" text-anchor="middle" x="1788.62" y="-93.25" font-family="sans" font-size="10.00">gunc_run</text>
<text xml:space="preserve" text-anchor="middle" x="1788.62" y="-80.5" font-family="sans" font-size="10.00">sample: MAG665</text>
</g>
<!-- 12&#45;&gt;14 -->
<g id="edge44" class="edge">
<title>12&#45;&gt;14</title>
<path fill="none" stroke="grey" stroke-width="2" d="M1788.62,-143.34C1788.62,-136.75 1788.62,-129.08 1788.62,-121.67"/>
<polygon fill="grey" stroke="grey" stroke-width="2" points="1792.13,-121.93 1788.63,-111.93 1785.13,-121.93 1792.13,-121.93"/>
</g>
<!-- 13&#45;&gt;0 -->
<g id="edge11" class="edge">
<title>13&#45;&gt;0</title>
<path fill="none" stroke="grey" stroke-width="2" d="M1621.14,-74.79C1616.59,-73.75 1612.04,-72.8 1607.62,-72 1425.73,-39.02 1204.92,-25.3 1115.33,-20.82"/>
<polygon fill="grey" stroke="grey" stroke-width="2" points="1115.77,-17.33 1105.61,-20.34 1115.43,-24.33 1115.77,-17.33"/>
</g>
<!-- 14&#45;&gt;0 -->
<g id="edge12" class="edge">
<title>14&#45;&gt;0</title>
<path fill="none" stroke="grey" stroke-width="2" d="M1738.16,-73.55C1735.62,-72.98 1733.1,-72.46 1730.62,-72 1500.52,-29.45 1218.73,-21.06 1115.23,-19.41"/>
<polygon fill="grey" stroke="grey" stroke-width="2" points="1115.46,-15.91 1105.41,-19.26 1115.36,-22.91 1115.46,-15.91"/>
</g>
<!-- 15 -->
<g id="node16" class="node">
<title>15</title>
<path fill="none" stroke="#56a9d8" stroke-width="2" d="M1409.75,-180C1409.75,-180 1355.5,-180 1355.5,-180 1349.5,-180 1343.5,-174 1343.5,-168 1343.5,-168 1343.5,-156 1343.5,-156 1343.5,-150 1349.5,-144 1355.5,-144 1355.5,-144 1409.75,-144 1409.75,-144 1415.75,-144 1421.75,-150 1421.75,-156 1421.75,-156 1421.75,-168 1421.75,-168 1421.75,-174 1415.75,-180 1409.75,-180"/>
<text xml:space="preserve" text-anchor="middle" x="1382.62" y="-158.88" font-family="sans" font-size="10.00">rrna_barrnap</text>
</g>
<!-- 15&#45;&gt;0 -->
<g id="edge13" class="edge">
<title>15&#45;&gt;0</title>
<path fill="none" stroke="grey" stroke-width="2" d="M1422.39,-144.01C1437.18,-135.5 1452.35,-123.63 1460.62,-108 1468.11,-93.86 1471.14,-84.06 1460.62,-72 1416.12,-20.96 1205.11,-17.34 1115.28,-18.18"/>
<polygon fill="grey" stroke="grey" stroke-width="2" points="1115.42,-14.68 1105.46,-18.31 1115.51,-21.68 1115.42,-14.68"/>
</g>
<!-- 28 -->
<g id="node29" class="node">
<title>28</title>
<path fill="none" stroke="#56c9d8" stroke-width="2" d="M1329,-108C1329,-108 1252.25,-108 1252.25,-108 1246.25,-108 1240.25,-102 1240.25,-96 1240.25,-96 1240.25,-84 1240.25,-84 1240.25,-78 1246.25,-72 1252.25,-72 1252.25,-72 1329,-72 1329,-72 1335,-72 1341,-78 1341,-84 1341,-84 1341,-96 1341,-96 1341,-102 1335,-108 1329,-108"/>
<text xml:space="preserve" text-anchor="middle" x="1290.62" y="-86.88" font-family="sans" font-size="10.00">rrna16s_diamond</text>
</g>
<!-- 15&#45;&gt;28 -->
<g id="edge51" class="edge">
<title>15&#45;&gt;28</title>
<path fill="none" stroke="grey" stroke-width="2" d="M1359.41,-143.34C1348.81,-135.27 1336.06,-125.57 1324.43,-116.72"/>
<polygon fill="grey" stroke="grey" stroke-width="2" points="1326.64,-114 1316.56,-110.73 1322.4,-119.58 1326.64,-114"/>
</g>
<!-- 15&#45;&gt;32 -->
<g id="edge59" class="edge">
<title>15&#45;&gt;32</title>
<path fill="none" stroke="grey" stroke-width="2" d="M1388.43,-143.34C1390.65,-136.59 1393.24,-128.69 1395.73,-121.11"/>
<polygon fill="grey" stroke="grey" stroke-width="2" points="1399,-122.37 1398.8,-111.78 1392.35,-120.19 1399,-122.37"/>
</g>
<!-- 16 -->
<g id="node17" class="node">
<title>16</title>
<path fill="none" stroke="#afd856" stroke-width="2" d="M1415.38,-252C1415.38,-252 1349.88,-252 1349.88,-252 1343.88,-252 1337.88,-246 1337.88,-240 1337.88,-240 1337.88,-228 1337.88,-228 1337.88,-222 1343.88,-216 1349.88,-216 1349.88,-216 1415.38,-216 1415.38,-216 1421.38,-216 1427.38,-222 1427.38,-228 1427.38,-228 1427.38,-240 1427.38,-240 1427.38,-246 1421.38,-252 1415.38,-252"/>
<text xml:space="preserve" text-anchor="middle" x="1382.62" y="-237.25" font-family="sans" font-size="10.00">gtdbtk_classify</text>
<text xml:space="preserve" text-anchor="middle" x="1382.62" y="-224.5" font-family="sans" font-size="10.00">sample: MAG1</text>
</g>
<!-- 16&#45;&gt;0 -->
<g id="edge22" class="edge">
<title>16&#45;&gt;0</title>
<path fill="none" stroke="grey" stroke-width="2" d="M1428.13,-232.87C1468.39,-230.03 1525.04,-218.78 1553.62,-180 1574.88,-151.17 1530.4,-74.96 1526.62,-72 1463.2,-22.33 1214.05,-18.16 1115.28,-18.52"/>
<polygon fill="grey" stroke="grey" stroke-width="2" points="1115.38,-15.02 1105.4,-18.58 1115.42,-22.02 1115.38,-15.02"/>
</g>
<!-- 16&#45;&gt;15 -->
<g id="edge45" class="edge">
<title>16&#45;&gt;15</title>
<path fill="none" stroke="grey" stroke-width="2" d="M1382.62,-215.34C1382.62,-208.75 1382.62,-201.08 1382.62,-193.67"/>
<polygon fill="grey" stroke="grey" stroke-width="2" points="1386.13,-193.93 1382.63,-183.93 1379.13,-193.93 1386.13,-193.93"/>
</g>
<!-- 17 -->
<g id="node18" class="node">
<title>17</title>
<path fill="none" stroke="#d88d56" stroke-width="2" d="M1258.88,-324C1258.88,-324 1184.38,-324 1184.38,-324 1178.38,-324 1172.38,-318 1172.38,-312 1172.38,-312 1172.38,-300 1172.38,-300 1172.38,-294 1178.38,-288 1184.38,-288 1184.38,-288 1258.88,-288 1258.88,-288 1264.88,-288 1270.88,-294 1270.88,-300 1270.88,-300 1270.88,-312 1270.88,-312 1270.88,-318 1264.88,-324 1258.88,-324"/>
<text xml:space="preserve" text-anchor="middle" x="1221.62" y="-302.88" font-family="sans" font-size="10.00">check_gtdbtk_db</text>
</g>
<!-- 17&#45;&gt;16 -->
<g id="edge46" class="edge">
<title>17&#45;&gt;16</title>
<path fill="none" stroke="grey" stroke-width="2" d="M1262.67,-287.15C1283.03,-278.3 1307.86,-267.51 1329.64,-258.04"/>
<polygon fill="grey" stroke="grey" stroke-width="2" points="1330.83,-261.34 1338.6,-254.14 1328.03,-254.92 1330.83,-261.34"/>
</g>
<!-- 19 -->
<g id="node20" class="node">
<title>19</title>
<path fill="none" stroke="#afd856" stroke-width="2" d="M1259.25,-252C1259.25,-252 1184,-252 1184,-252 1178,-252 1172,-246 1172,-240 1172,-240 1172,-228 1172,-228 1172,-222 1178,-216 1184,-216 1184,-216 1259.25,-216 1259.25,-216 1265.25,-216 1271.25,-222 1271.25,-228 1271.25,-228 1271.25,-240 1271.25,-240 1271.25,-246 1265.25,-252 1259.25,-252"/>
<text xml:space="preserve" text-anchor="middle" x="1221.62" y="-237.25" font-family="sans" font-size="10.00">gtdbtk_classify</text>
<text xml:space="preserve" text-anchor="middle" x="1221.62" y="-224.5" font-family="sans" font-size="10.00">sample: MAG209</text>
</g>
<!-- 17&#45;&gt;19 -->
<g id="edge48" class="edge">
<title>17&#45;&gt;19</title>
<path fill="none" stroke="grey" stroke-width="2" d="M1221.62,-287.34C1221.62,-280.75 1221.62,-273.08 1221.62,-265.67"/>
<polygon fill="grey" stroke="grey" stroke-width="2" points="1225.13,-265.93 1221.63,-255.93 1218.13,-265.93 1225.13,-265.93"/>
</g>
<!-- 21 -->
<g id="node22" class="node">
<title>21</title>
<path fill="none" stroke="#afd856" stroke-width="2" d="M1093.25,-252C1093.25,-252 1018,-252 1018,-252 1012,-252 1006,-246 1006,-240 1006,-240 1006,-228 1006,-228 1006,-222 1012,-216 1018,-216 1018,-216 1093.25,-216 1093.25,-216 1099.25,-216 1105.25,-222 1105.25,-228 1105.25,-228 1105.25,-240 1105.25,-240 1105.25,-246 1099.25,-252 1093.25,-252"/>
<text xml:space="preserve" text-anchor="middle" x="1055.62" y="-237.25" font-family="sans" font-size="10.00">gtdbtk_classify</text>
<text xml:space="preserve" text-anchor="middle" x="1055.62" y="-224.5" font-family="sans" font-size="10.00">sample: MAG665</text>
</g>
<!-- 17&#45;&gt;21 -->
<g id="edge50" class="edge">
<title>17&#45;&gt;21</title>
<path fill="none" stroke="grey" stroke-width="2" d="M1179.31,-287.15C1158.22,-278.26 1132.47,-267.41 1109.94,-257.91"/>
<polygon fill="grey" stroke="grey" stroke-width="2" points="1111.52,-254.77 1100.94,-254.11 1108.8,-261.22 1111.52,-254.77"/>
</g>
<!-- 18 -->
<g id="node19" class="node">
<title>18</title>
<path fill="none" stroke="#56a9d8" stroke-width="2" d="M1149.75,-180C1149.75,-180 1095.5,-180 1095.5,-180 1089.5,-180 1083.5,-174 1083.5,-168 1083.5,-168 1083.5,-156 1083.5,-156 1083.5,-150 1089.5,-144 1095.5,-144 1095.5,-144 1149.75,-144 1149.75,-144 1155.75,-144 1161.75,-150 1161.75,-156 1161.75,-156 1161.75,-168 1161.75,-168 1161.75,-174 1155.75,-180 1149.75,-180"/>
<text xml:space="preserve" text-anchor="middle" x="1122.62" y="-158.88" font-family="sans" font-size="10.00">rrna_barrnap</text>
</g>
<!-- 18&#45;&gt;0 -->
<g id="edge14" class="edge">
<title>18&#45;&gt;0</title>
<path fill="none" stroke="grey" stroke-width="2" d="M1116.55,-143.02C1108.54,-119.33 1094.35,-77.35 1084.72,-48.86"/>
<polygon fill="grey" stroke="grey" stroke-width="2" points="1088.14,-48.06 1081.62,-39.71 1081.51,-50.3 1088.14,-48.06"/>
</g>
<!-- 30 -->
<g id="node31" class="node">
<title>30</title>
<path fill="none" stroke="#56c9d8" stroke-width="2" d="M1210,-108C1210,-108 1133.25,-108 1133.25,-108 1127.25,-108 1121.25,-102 1121.25,-96 1121.25,-96 1121.25,-84 1121.25,-84 1121.25,-78 1127.25,-72 1133.25,-72 1133.25,-72 1210,-72 1210,-72 1216,-72 1222,-78 1222,-84 1222,-84 1222,-96 1222,-96 1222,-102 1216,-108 1210,-108"/>
<text xml:space="preserve" text-anchor="middle" x="1171.62" y="-86.88" font-family="sans" font-size="10.00">rrna16s_diamond</text>
</g>
<!-- 18&#45;&gt;30 -->
<g id="edge53" class="edge">
<title>18&#45;&gt;30</title>
<path fill="none" stroke="grey" stroke-width="2" d="M1134.99,-143.34C1140.06,-136.1 1146.05,-127.53 1151.71,-119.45"/>
<polygon fill="grey" stroke="grey" stroke-width="2" points="1154.49,-121.58 1157.36,-111.38 1148.76,-117.57 1154.49,-121.58"/>
</g>
<!-- 18&#45;&gt;33 -->
<g id="edge62" class="edge">
<title>18&#45;&gt;33</title>
<path fill="none" stroke="grey" stroke-width="2" d="M1082.87,-153.9C1064.29,-150.69 1041.86,-146.96 1021.62,-144 897.55,-125.84 861.47,-134.32 736.24,-108.55"/>
<polygon fill="grey" stroke="grey" stroke-width="2" points="737.3,-105.2 726.8,-106.57 735.86,-112.05 737.3,-105.2"/>
</g>
<!-- 19&#45;&gt;0 -->
<g id="edge23" class="edge">
<title>19&#45;&gt;0</title>
<path fill="none" stroke="grey" stroke-width="2" d="M1272.17,-224.92C1360.65,-210.71 1534.49,-182.52 1536.62,-180 1546.96,-167.78 1540.47,-159.53 1536.62,-144 1527.93,-108.88 1528.39,-92.57 1498.62,-72 1437.04,-29.44 1209.03,-21.04 1115.28,-19.4"/>
<polygon fill="grey" stroke="grey" stroke-width="2" points="1115.54,-15.9 1105.49,-19.25 1115.43,-22.9 1115.54,-15.9"/>
</g>
<!-- 19&#45;&gt;18 -->
<g id="edge47" class="edge">
<title>19&#45;&gt;18</title>
<path fill="none" stroke="grey" stroke-width="2" d="M1196.39,-215.15C1184.87,-207.01 1171.02,-197.22 1158.45,-188.33"/>
<polygon fill="grey" stroke="grey" stroke-width="2" points="1160.47,-185.48 1150.29,-182.56 1156.43,-191.19 1160.47,-185.48"/>
</g>
<!-- 20 -->
<g id="node21" class="node">
<title>20</title>
<path fill="none" stroke="#56a9d8" stroke-width="2" d="M1000.75,-180C1000.75,-180 946.5,-180 946.5,-180 940.5,-180 934.5,-174 934.5,-168 934.5,-168 934.5,-156 934.5,-156 934.5,-150 940.5,-144 946.5,-144 946.5,-144 1000.75,-144 1000.75,-144 1006.75,-144 1012.75,-150 1012.75,-156 1012.75,-156 1012.75,-168 1012.75,-168 1012.75,-174 1006.75,-180 1000.75,-180"/>
<text xml:space="preserve" text-anchor="middle" x="973.62" y="-158.88" font-family="sans" font-size="10.00">rrna_barrnap</text>
</g>
<!-- 20&#45;&gt;0 -->
<g id="edge15" class="edge">
<title>20&#45;&gt;0</title>
<path fill="none" stroke="grey" stroke-width="2" d="M949.49,-143.15C927.74,-124.85 901.59,-95.77 918.62,-72 944.66,-35.66 997.06,-23.93 1033.92,-20.32"/>
<polygon fill="grey" stroke="grey" stroke-width="2" points="1034.01,-23.82 1043.7,-19.56 1033.46,-16.84 1034.01,-23.82"/>
</g>
<!-- 31 -->
<g id="node32" class="node">
<title>31</title>
<path fill="none" stroke="#56c9d8" stroke-width="2" d="M1016,-108C1016,-108 939.25,-108 939.25,-108 933.25,-108 927.25,-102 927.25,-96 927.25,-96 927.25,-84 927.25,-84 927.25,-78 933.25,-72 939.25,-72 939.25,-72 1016,-72 1016,-72 1022,-72 1028,-78 1028,-84 1028,-84 1028,-96 1028,-96 1028,-102 1022,-108 1016,-108"/>
<text xml:space="preserve" text-anchor="middle" x="977.62" y="-86.88" font-family="sans" font-size="10.00">rrna16s_diamond</text>
</g>
<!-- 20&#45;&gt;31 -->
<g id="edge55" class="edge">
<title>20&#45;&gt;31</title>
<path fill="none" stroke="grey" stroke-width="2" d="M974.63,-143.34C975.01,-136.75 975.45,-129.08 975.87,-121.67"/>
<polygon fill="grey" stroke="grey" stroke-width="2" points="979.35,-122.11 976.43,-111.92 972.36,-121.71 979.35,-122.11"/>
</g>
<!-- 20&#45;&gt;34 -->
<g id="edge65" class="edge">
<title>20&#45;&gt;34</title>
<path fill="none" stroke="grey" stroke-width="2" d="M933.72,-145.98C908.32,-136.42 874.96,-123.87 846.54,-113.17"/>
<polygon fill="grey" stroke="grey" stroke-width="2" points="848.12,-110.03 837.53,-109.78 845.66,-116.58 848.12,-110.03"/>
</g>
<!-- 21&#45;&gt;0 -->
<g id="edge24" class="edge">
<title>21&#45;&gt;0</title>
<path fill="none" stroke="grey" stroke-width="2" d="M1057.21,-215.12C1060.45,-178.62 1067.87,-95.13 1071.9,-49.74"/>
<polygon fill="grey" stroke="grey" stroke-width="2" points="1075.36,-50.26 1072.76,-39.99 1068.39,-49.64 1075.36,-50.26"/>
</g>
<!-- 21&#45;&gt;20 -->
<g id="edge49" class="edge">
<title>21&#45;&gt;20</title>
<path fill="none" stroke="grey" stroke-width="2" d="M1034.93,-215.34C1025.68,-207.44 1014.58,-197.96 1004.39,-189.26"/>
<polygon fill="grey" stroke="grey" stroke-width="2" points="1006.78,-186.7 996.9,-182.87 1002.23,-192.02 1006.78,-186.7"/>
</g>
<!-- 22 -->
<g id="node23" class="node">
<title>22</title>
<path fill="none" stroke="#5673d8" stroke-width="2" d="M1515.25,-180C1515.25,-180 1452,-180 1452,-180 1446,-180 1440,-174 1440,-168 1440,-168 1440,-156 1440,-156 1440,-150 1446,-144 1452,-144 1452,-144 1515.25,-144 1515.25,-144 1521.25,-144 1527.25,-150 1527.25,-156 1527.25,-156 1527.25,-168 1527.25,-168 1527.25,-174 1521.25,-180 1515.25,-180"/>
<text xml:space="preserve" text-anchor="middle" x="1483.62" y="-165.25" font-family="sans" font-size="10.00">trna_scan</text>
<text xml:space="preserve" text-anchor="middle" x="1483.62" y="-152.5" font-family="sans" font-size="10.00">sample: MAG1</text>
</g>
<!-- 22&#45;&gt;0 -->
<g id="edge16" class="edge">
<title>22&#45;&gt;0</title>
<path fill="none" stroke="grey" stroke-width="2" d="M1488.37,-143.05C1492.48,-122.99 1495.32,-90.86 1477.62,-72 1453.04,-45.8 1212.49,-27.74 1115.18,-21.45"/>
<polygon fill="grey" stroke="grey" stroke-width="2" points="1115.66,-17.98 1105.45,-20.84 1115.21,-24.96 1115.66,-17.98"/>
</g>
<!-- 22&#45;&gt;32 -->
<g id="edge58" class="edge">
<title>22&#45;&gt;32</title>
<path fill="none" stroke="grey" stroke-width="2" d="M1463.94,-143.34C1455.23,-135.52 1444.81,-126.16 1435.19,-117.53"/>
<polygon fill="grey" stroke="grey" stroke-width="2" points="1437.61,-115 1427.83,-110.92 1432.93,-120.21 1437.61,-115"/>
</g>
<!-- 23 -->
<g id="node24" class="node">
<title>23</title>
<path fill="none" stroke="#5673d8" stroke-width="2" d="M777.25,-180C777.25,-180 702,-180 702,-180 696,-180 690,-174 690,-168 690,-168 690,-156 690,-156 690,-150 696,-144 702,-144 702,-144 777.25,-144 777.25,-144 783.25,-144 789.25,-150 789.25,-156 789.25,-156 789.25,-168 789.25,-168 789.25,-174 783.25,-180 777.25,-180"/>
<text xml:space="preserve" text-anchor="middle" x="739.62" y="-165.25" font-family="sans" font-size="10.00">trna_scan</text>
<text xml:space="preserve" text-anchor="middle" x="739.62" y="-152.5" font-family="sans" font-size="10.00">sample: MAG209</text>
</g>
<!-- 23&#45;&gt;0 -->
<g id="edge17" class="edge">
<title>23&#45;&gt;0</title>
<path fill="none" stroke="grey" stroke-width="2" d="M689.06,-144.5C660.8,-134.15 629.68,-120.44 621.62,-108 612.93,-94.57 610.99,-83.95 621.62,-72 648.82,-41.43 927.4,-25.68 1033.71,-20.74"/>
<polygon fill="grey" stroke="grey" stroke-width="2" points="1033.8,-24.24 1043.63,-20.29 1033.48,-17.25 1033.8,-24.24"/>
</g>
<!-- 23&#45;&gt;33 -->
<g id="edge61" class="edge">
<title>23&#45;&gt;33</title>
<path fill="none" stroke="grey" stroke-width="2" d="M723.73,-143.34C716.92,-135.77 708.8,-126.75 701.24,-118.35"/>
<polygon fill="grey" stroke="grey" stroke-width="2" points="704.05,-116.24 694.76,-111.15 698.85,-120.93 704.05,-116.24"/>
</g>
<!-- 24 -->
<g id="node25" class="node">
<title>24</title>
<path fill="none" stroke="#5673d8" stroke-width="2" d="M897.25,-180C897.25,-180 822,-180 822,-180 816,-180 810,-174 810,-168 810,-168 810,-156 810,-156 810,-150 816,-144 822,-144 822,-144 897.25,-144 897.25,-144 903.25,-144 909.25,-150 909.25,-156 909.25,-156 909.25,-168 909.25,-168 909.25,-174 903.25,-180 897.25,-180"/>
<text xml:space="preserve" text-anchor="middle" x="859.62" y="-165.25" font-family="sans" font-size="10.00">trna_scan</text>
<text xml:space="preserve" text-anchor="middle" x="859.62" y="-152.5" font-family="sans" font-size="10.00">sample: MAG665</text>
</g>
<!-- 24&#45;&gt;0 -->
<g id="edge18" class="edge">
<title>24&#45;&gt;0</title>
<path fill="none" stroke="grey" stroke-width="2" d="M865.11,-143.36C872.24,-123.28 886.56,-90.83 909.62,-72 945.63,-42.59 998.29,-29.37 1034.37,-23.52"/>
<polygon fill="grey" stroke="grey" stroke-width="2" points="1034.48,-27.04 1043.86,-22.12 1033.46,-20.12 1034.48,-27.04"/>
</g>
<!-- 24&#45;&gt;34 -->
<g id="edge64" class="edge">
<title>24&#45;&gt;34</title>
<path fill="none" stroke="grey" stroke-width="2" d="M841.46,-143.34C833.5,-135.6 823.99,-126.36 815.2,-117.81"/>
<polygon fill="grey" stroke="grey" stroke-width="2" points="817.82,-115.47 808.21,-111.01 812.94,-120.49 817.82,-115.47"/>
</g>
<!-- 25 -->
<g id="node26" class="node">
<title>25</title>
<path fill="none" stroke="#59d856" stroke-width="2" d="M2036.25,-108C2036.25,-108 1973,-108 1973,-108 1967,-108 1961,-102 1961,-96 1961,-96 1961,-84 1961,-84 1961,-78 1967,-72 1973,-72 1973,-72 2036.25,-72 2036.25,-72 2042.25,-72 2048.25,-78 2048.25,-84 2048.25,-84 2048.25,-96 2048.25,-96 2048.25,-102 2042.25,-108 2036.25,-108"/>
<text xml:space="preserve" text-anchor="middle" x="2004.62" y="-93.25" font-family="sans" font-size="10.00">orfs_prodigal</text>
<text xml:space="preserve" text-anchor="middle" x="2004.62" y="-80.5" font-family="sans" font-size="10.00">sample: MAG1</text>
</g>
<!-- 25&#45;&gt;0 -->
<g id="edge19" class="edge">
<title>25&#45;&gt;0</title>
<path fill="none" stroke="grey" stroke-width="2" d="M1960.29,-73.68C1957.71,-73.05 1955.14,-72.48 1952.62,-72 1788.79,-40.81 1265.33,-24.26 1115.22,-20.07"/>
<polygon fill="grey" stroke="grey" stroke-width="2" points="1115.39,-16.58 1105.3,-19.8 1115.2,-23.57 1115.39,-16.58"/>
</g>
<!-- 26 -->
<g id="node27" class="node">
<title>26</title>
<path fill="none" stroke="#59d856" stroke-width="2" d="M2153.25,-108C2153.25,-108 2078,-108 2078,-108 2072,-108 2066,-102 2066,-96 2066,-96 2066,-84 2066,-84 2066,-78 2072,-72 2078,-72 2078,-72 2153.25,-72 2153.25,-72 2159.25,-72 2165.25,-78 2165.25,-84 2165.25,-84 2165.25,-96 2165.25,-96 2165.25,-102 2159.25,-108 2153.25,-108"/>
<text xml:space="preserve" text-anchor="middle" x="2115.62" y="-93.25" font-family="sans" font-size="10.00">orfs_prodigal</text>
<text xml:space="preserve" text-anchor="middle" x="2115.62" y="-80.5" font-family="sans" font-size="10.00">sample: MAG209</text>
</g>
<!-- 26&#45;&gt;0 -->
<g id="edge20" class="edge">
<title>26&#45;&gt;0</title>
<path fill="none" stroke="grey" stroke-width="2" d="M2065.17,-73.47C2062.63,-72.92 2060.11,-72.42 2057.62,-72 1871.84,-40.21 1276.46,-23.85 1115.22,-19.94"/>
<polygon fill="grey" stroke="grey" stroke-width="2" points="1115.36,-16.44 1105.28,-19.7 1115.19,-23.44 1115.36,-16.44"/>
</g>
<!-- 27 -->
<g id="node28" class="node">
<title>27</title>
<path fill="none" stroke="#59d856" stroke-width="2" d="M2270.25,-108C2270.25,-108 2195,-108 2195,-108 2189,-108 2183,-102 2183,-96 2183,-96 2183,-84 2183,-84 2183,-78 2189,-72 2195,-72 2195,-72 2270.25,-72 2270.25,-72 2276.25,-72 2282.25,-78 2282.25,-84 2282.25,-84 2282.25,-96 2282.25,-96 2282.25,-102 2276.25,-108 2270.25,-108"/>
<text xml:space="preserve" text-anchor="middle" x="2232.62" y="-93.25" font-family="sans" font-size="10.00">orfs_prodigal</text>
<text xml:space="preserve" text-anchor="middle" x="2232.62" y="-80.5" font-family="sans" font-size="10.00">sample: MAG665</text>
</g>
<!-- 27&#45;&gt;0 -->
<g id="edge21" class="edge">
<title>27&#45;&gt;0</title>
<path fill="none" stroke="grey" stroke-width="2" d="M2182.18,-73.45C2179.64,-72.91 2177.11,-72.42 2174.62,-72 1964.89,-36.72 1288.93,-22.73 1115.49,-19.67"/>
<polygon fill="grey" stroke="grey" stroke-width="2" points="1115.61,-16.18 1105.55,-19.5 1115.49,-23.17 1115.61,-16.18"/>
</g>
<!-- 28&#45;&gt;0 -->
<g id="edge25" class="edge">
<title>28&#45;&gt;0</title>
<path fill="none" stroke="grey" stroke-width="2" d="M1239.44,-72.41C1201.21,-60.02 1149.72,-43.34 1114.53,-31.93"/>
<polygon fill="grey" stroke="grey" stroke-width="2" points="1115.82,-28.67 1105.23,-28.92 1113.67,-35.33 1115.82,-28.67"/>
</g>
<!-- 29 -->
<g id="node30" class="node">
<title>29</title>
<path fill="none" stroke="#d8cb56" stroke-width="2" stroke-dasharray="5,2" d="M1271.88,-180C1271.88,-180 1191.38,-180 1191.38,-180 1185.38,-180 1179.38,-174 1179.38,-168 1179.38,-168 1179.38,-156 1179.38,-156 1179.38,-150 1185.38,-144 1191.38,-144 1191.38,-144 1271.88,-144 1271.88,-144 1277.88,-144 1283.88,-150 1283.88,-156 1283.88,-156 1283.88,-168 1283.88,-168 1283.88,-174 1277.88,-180 1271.88,-180"/>
<text xml:space="preserve" text-anchor="middle" x="1231.62" y="-158.88" font-family="sans" font-size="10.00">check_ncbi16s_db</text>
</g>
<!-- 29&#45;&gt;28 -->
<g id="edge52" class="edge">
<title>29&#45;&gt;28</title>
<path fill="none" stroke="grey" stroke-width="2" d="M1246.51,-143.34C1252.82,-135.85 1260.33,-126.95 1267.34,-118.63"/>
<polygon fill="grey" stroke="grey" stroke-width="2" points="1269.82,-121.12 1273.59,-111.22 1264.46,-116.61 1269.82,-121.12"/>
</g>
<!-- 29&#45;&gt;30 -->
<g id="edge54" class="edge">
<title>29&#45;&gt;30</title>
<path fill="none" stroke="grey" stroke-width="2" d="M1216.48,-143.34C1210.07,-135.85 1202.44,-126.95 1195.31,-118.63"/>
<polygon fill="grey" stroke="grey" stroke-width="2" points="1198.1,-116.51 1188.94,-111.2 1192.79,-121.07 1198.1,-116.51"/>
</g>
<!-- 29&#45;&gt;31 -->
<g id="edge56" class="edge">
<title>29&#45;&gt;31</title>
<path fill="none" stroke="grey" stroke-width="2" d="M1178.4,-146.15C1175.77,-145.42 1173.17,-144.7 1170.62,-144 1127.45,-132.06 1078.81,-118.7 1041.16,-108.38"/>
<polygon fill="grey" stroke="grey" stroke-width="2" points="1042.33,-105.07 1031.76,-105.81 1040.48,-111.83 1042.33,-105.07"/>
</g>
<!-- 30&#45;&gt;0 -->
<g id="edge26" class="edge">
<title>30&#45;&gt;0</title>
<path fill="none" stroke="grey" stroke-width="2" d="M1146.9,-71.15C1135.61,-63.01 1122.04,-53.22 1109.72,-44.33"/>
<polygon fill="grey" stroke="grey" stroke-width="2" points="1111.92,-41.6 1101.76,-38.58 1107.82,-47.27 1111.92,-41.6"/>
</g>
<!-- 31&#45;&gt;0 -->
<g id="edge27" class="edge">
<title>31&#45;&gt;0</title>
<path fill="none" stroke="grey" stroke-width="2" d="M1002.35,-71.15C1013.64,-63.01 1027.21,-53.22 1039.53,-44.33"/>
<polygon fill="grey" stroke="grey" stroke-width="2" points="1041.43,-47.27 1047.49,-38.58 1037.33,-41.6 1041.43,-47.27"/>
</g>
<!-- 32&#45;&gt;0 -->
<g id="edge28" class="edge">
<title>32&#45;&gt;0</title>
<path fill="none" stroke="grey" stroke-width="2" d="M1358.67,-74.36C1355.62,-73.53 1352.58,-72.73 1349.62,-72 1267.17,-51.6 1169.19,-34.36 1115.27,-25.47"/>
<polygon fill="grey" stroke="grey" stroke-width="2" points="1115.97,-22.04 1105.54,-23.88 1114.84,-28.94 1115.97,-22.04"/>
</g>
<!-- 33&#45;&gt;0 -->
<g id="edge29" class="edge">
<title>33&#45;&gt;0</title>
<path fill="none" stroke="grey" stroke-width="2" d="M723.86,-74.15C726.81,-73.38 729.75,-72.66 732.62,-72 840.36,-47.43 969.82,-30.81 1034.18,-23.4"/>
<polygon fill="grey" stroke="grey" stroke-width="2" points="1034.34,-26.9 1043.88,-22.29 1033.55,-19.94 1034.34,-26.9"/>
</g>
<!-- 34&#45;&gt;0 -->
<g id="edge30" class="edge">
<title>34&#45;&gt;0</title>
<path fill="none" stroke="grey" stroke-width="2" d="M834.73,-75.43C839.08,-74.24 843.43,-73.08 847.62,-72 912.71,-55.19 988.9,-37.88 1034.39,-27.8"/>
<polygon fill="grey" stroke="grey" stroke-width="2" points="1034.95,-31.26 1043.96,-25.68 1033.44,-24.42 1034.95,-31.26"/>
</g>
<!-- 35 -->
<g id="node36" class="node">
<title>35</title>
<path fill="none" stroke="#c6d856" stroke-width="2" d="M2380.62,-180C2380.62,-180 2304.62,-180 2304.62,-180 2298.62,-180 2292.62,-174 2292.62,-168 2292.62,-168 2292.62,-156 2292.62,-156 2292.62,-150 2298.62,-144 2304.62,-144 2304.62,-144 2380.62,-144 2380.62,-144 2386.62,-144 2392.62,-150 2392.62,-156 2392.62,-156 2392.62,-168 2392.62,-168 2392.62,-174 2386.62,-180 2380.62,-180"/>
<text xml:space="preserve" text-anchor="middle" x="2342.62" y="-158.88" font-family="sans" font-size="10.00">collect_summary</text>
</g>
<!-- 35&#45;&gt;0 -->
<g id="edge31" class="edge">
<title>35&#45;&gt;0</title>
<path fill="none" stroke="grey" stroke-width="2" d="M2338.09,-143.32C2331.65,-122.23 2317.63,-87.84 2291.62,-72 2240.31,-40.75 1320.95,-23.21 1115.23,-19.67"/>
<polygon fill="grey" stroke="grey" stroke-width="2" points="1115.55,-16.18 1105.49,-19.51 1115.43,-23.18 1115.55,-16.18"/>
</g>
<!-- 36 -->
<g id="node37" class="node">
<title>36</title>
<path fill="none" stroke="#56d8c9" stroke-width="2" d="M2400.12,-108C2400.12,-108 2351.12,-108 2351.12,-108 2345.12,-108 2339.12,-102 2339.12,-96 2339.12,-96 2339.12,-84 2339.12,-84 2339.12,-78 2345.12,-72 2351.12,-72 2351.12,-72 2400.12,-72 2400.12,-72 2406.12,-72 2412.12,-78 2412.12,-84 2412.12,-84 2412.12,-96 2412.12,-96 2412.12,-102 2406.12,-108 2400.12,-108"/>
<text xml:space="preserve" text-anchor="middle" x="2375.62" y="-86.88" font-family="sans" font-size="10.00">report_html</text>
</g>
<!-- 35&#45;&gt;36 -->
<g id="edge66" class="edge">
<title>35&#45;&gt;36</title>
<path fill="none" stroke="grey" stroke-width="2" d="M2350.95,-143.34C2354.21,-136.43 2358.04,-128.31 2361.69,-120.56"/>
<polygon fill="grey" stroke="grey" stroke-width="2" points="2364.8,-122.18 2365.89,-111.64 2358.46,-119.19 2364.8,-122.18"/>
</g>
<!-- 36&#45;&gt;0 -->
<g id="edge32" class="edge">
<title>36&#45;&gt;0</title>
<path fill="none" stroke="grey" stroke-width="2" d="M2338.34,-75.25C2333.77,-73.96 2329.12,-72.83 2324.62,-72 2084.7,-27.83 1303.41,-20.37 1115.53,-19.2"/>
<polygon fill="grey" stroke="grey" stroke-width="2" points="1115.6,-15.7 1105.58,-19.14 1115.56,-22.7 1115.6,-15.7"/>
</g>
</g>
</svg>
