<?xml version="1.0" encoding="UTF-8" standalone="no"?>
<!DOCTYPE svg PUBLIC "-//W3C//DTD SVG 1.1//EN"
 "http://www.w3.org/Graphics/SVG/1.1/DTD/svg11.dtd">
<!-- Generated by graphviz version 13.1.2 (20250809.0930)
 -->
<!-- Title: snakemake_dag Pages: 1 -->
<svg width="1948pt" height="332pt"
 viewBox="0.00 0.00 1948.00 332.00" xmlns="http://www.w3.org/2000/svg" xmlns:xlink="http://www.w3.org/1999/xlink">
<g id="graph0" class="graph" transform="scale(1 1) rotate(0) translate(4 328)">
<title>snakemake_dag</title>
<polygon fill="white" stroke="none" points="-4,4 -4,-328 1943.84,-328 1943.84,4 -4,4"/>
<!-- 0 -->
<g id="node1" class="node">
<title>0</title>
<path fill="none" stroke="#d85656" stroke-width="2" d="M887.22,-36C887.22,-36 857.22,-36 857.22,-36 851.22,-36 845.22,-30 845.22,-24 845.22,-24 845.22,-12 845.22,-12 845.22,-6 851.22,0 857.22,0 857.22,0 887.22,0 887.22,0 893.22,0 899.22,-6 899.22,-12 899.22,-12 899.22,-24 899.22,-24 899.22,-30 893.22,-36 887.22,-36"/>
<text xml:space="preserve" text-anchor="middle" x="872.22" y="-14.88" font-family="sans" font-size="10.00">all</text>
</g>
<!-- 1 -->
<g id="node2" class="node">
<title>1</title>
<path fill="none" stroke="#569ad8" stroke-width="2" d="M90.84,-180C90.84,-180 27.59,-180 27.59,-180 21.59,-180 15.59,-174 15.59,-168 15.59,-168 15.59,-156 15.59,-156 15.59,-150 21.59,-144 27.59,-144 27.59,-144 90.84,-144 90.84,-144 96.84,-144 102.84,-150 102.84,-156 102.84,-156 102.84,-168 102.84,-168 102.84,-174 96.84,-180 90.84,-180"/>
<text xml:space="preserve" text-anchor="middle" x="59.22" y="-165.25" font-family="sans" font-size="10.00">stats_seqkit</text>
<text xml:space="preserve" text-anchor="middle" x="59.22" y="-152.5" font-family="sans" font-size="10.00">sample: MAG1</text>
</g>
<!-- 1&#45;&gt;0 -->
<g id="edge1" class="edge">
<title>1&#45;&gt;0</title>
<path fill="none" stroke="grey" stroke-width="2" d="M56.43,-143.3C54.33,-122.86 54.58,-89.76 74.22,-72 130.71,-20.93 676.4,-18.47 831.37,-18.81"/>
<polygon fill="grey" stroke="grey" stroke-width="2" points="831.27,-22.31 841.28,-18.84 831.29,-15.31 831.27,-22.31"/>
</g>
<!-- 5 -->
<g id="node6" class="node">
<title>5</title>
<path fill="none" stroke="#88d856" stroke-width="2" d="M140.84,-108C140.84,-108 95.59,-108 95.59,-108 89.59,-108 83.59,-102 83.59,-96 83.59,-96 83.59,-84 83.59,-84 83.59,-78 89.59,-72 95.59,-72 95.59,-72 140.84,-72 140.84,-72 146.84,-72 152.84,-78 152.84,-84 152.84,-84 152.84,-96 152.84,-96 152.84,-102 146.84,-108 140.84,-108"/>
<text xml:space="preserve" text-anchor="middle" x="118.22" y="-86.88" font-family="sans" font-size="10.00">park_score</text>
</g>
<!-- 1&#45;&gt;5 -->
<g id="edge29" class="edge">
<title>1&#45;&gt;5</title>
<path fill="none" stroke="grey" stroke-width="2" d="M74.11,-143.34C80.42,-135.85 87.92,-126.95 94.93,-118.63"/>
<polygon fill="grey" stroke="grey" stroke-width="2" points="97.41,-121.12 101.18,-111.22 92.06,-116.61 97.41,-121.12"/>
</g>
<!-- 2 -->
<g id="node3" class="node">
<title>2</title>
<path fill="none" stroke="#569ad8" stroke-width="2" d="M284.84,-180C284.84,-180 209.59,-180 209.59,-180 203.59,-180 197.59,-174 197.59,-168 197.59,-168 197.59,-156 197.59,-156 197.59,-150 203.59,-144 209.59,-144 209.59,-144 284.84,-144 284.84,-144 290.84,-144 296.84,-150 296.84,-156 296.84,-156 296.84,-168 296.84,-168 296.84,-174 290.84,-180 284.84,-180"/>
<text xml:space="preserve" text-anchor="middle" x="247.22" y="-165.25" font-family="sans" font-size="10.00">stats_seqkit</text>
<text xml:space="preserve" text-anchor="middle" x="247.22" y="-152.5" font-family="sans" font-size="10.00">sample: MAG209</text>
</g>
<!-- 2&#45;&gt;0 -->
<g id="edge2" class="edge">
<title>2&#45;&gt;0</title>
<path fill="none" stroke="grey" stroke-width="2" d="M249.79,-143.28C253.82,-122.48 263.77,-88.72 287.22,-72 331.38,-40.51 706.17,-24.76 831.55,-20.33"/>
<polygon fill="grey" stroke="grey" stroke-width="2" points="831.33,-23.84 841.21,-20 831.09,-16.84 831.33,-23.84"/>
</g>
<!-- 6 -->
<g id="node7" class="node">
<title>6</title>
<path fill="none" stroke="#88d856" stroke-width="2" d="M227.84,-108C227.84,-108 182.59,-108 182.59,-108 176.59,-108 170.59,-102 170.59,-96 170.59,-96 170.59,-84 170.59,-84 170.59,-78 176.59,-72 182.59,-72 182.59,-72 227.84,-72 227.84,-72 233.84,-72 239.84,-78 239.84,-84 239.84,-84 239.84,-96 239.84,-96 239.84,-102 233.84,-108 227.84,-108"/>
<text xml:space="preserve" text-anchor="middle" x="205.22" y="-86.88" font-family="sans" font-size="10.00">park_score</text>
</g>
<!-- 2&#45;&gt;6 -->
<g id="edge31" class="edge">
<title>2&#45;&gt;6</title>
<path fill="none" stroke="grey" stroke-width="2" d="M236.62,-143.34C232.38,-136.26 227.37,-127.92 222.62,-120"/>
<polygon fill="grey" stroke="grey" stroke-width="2" points="225.66,-118.27 217.52,-111.5 219.66,-121.87 225.66,-118.27"/>
</g>
<!-- 3 -->
<g id="node4" class="node">
<title>3</title>
<path fill="none" stroke="#569ad8" stroke-width="2" d="M440.84,-180C440.84,-180 365.59,-180 365.59,-180 359.59,-180 353.59,-174 353.59,-168 353.59,-168 353.59,-156 353.59,-156 353.59,-150 359.59,-144 365.59,-144 365.59,-144 440.84,-144 440.84,-144 446.84,-144 452.84,-150 452.84,-156 452.84,-156 452.84,-168 452.84,-168 452.84,-174 446.84,-180 440.84,-180"/>
<text xml:space="preserve" text-anchor="middle" x="403.22" y="-165.25" font-family="sans" font-size="10.00">stats_seqkit</text>
<text xml:space="preserve" text-anchor="middle" x="403.22" y="-152.5" font-family="sans" font-size="10.00">sample: MAG665</text>
</g>
<!-- 3&#45;&gt;0 -->
<g id="edge3" class="edge">
<title>3&#45;&gt;0</title>
<path fill="none" stroke="grey" stroke-width="2" d="M400.55,-143.11C398.64,-122.8 399.14,-90.14 418.22,-72 447.94,-43.75 725.62,-26.57 831.48,-21"/>
<polygon fill="grey" stroke="grey" stroke-width="2" points="831.55,-24.5 841.36,-20.49 831.19,-17.51 831.55,-24.5"/>
</g>
<!-- 7 -->
<g id="node8" class="node">
<title>7</title>
<path fill="none" stroke="#88d856" stroke-width="2" d="M353.84,-108C353.84,-108 308.59,-108 308.59,-108 302.59,-108 296.59,-102 296.59,-96 296.59,-96 296.59,-84 296.59,-84 296.59,-78 302.59,-72 308.59,-72 308.59,-72 353.84,-72 353.84,-72 359.84,-72 365.84,-78 365.84,-84 365.84,-84 365.84,-96 365.84,-96 365.84,-102 359.84,-108 353.84,-108"/>
<text xml:space="preserve" text-anchor="middle" x="331.22" y="-86.88" font-family="sans" font-size="10.00">park_score</text>
</g>
<!-- 3&#45;&gt;7 -->
<g id="edge33" class="edge">
<title>3&#45;&gt;7</title>
<path fill="none" stroke="grey" stroke-width="2" d="M385.05,-143.34C377.1,-135.6 367.59,-126.36 358.79,-117.81"/>
<polygon fill="grey" stroke="grey" stroke-width="2" points="361.41,-115.47 351.8,-111.01 356.53,-120.49 361.41,-115.47"/>
</g>
<!-- 4 -->
<g id="node5" class="node">
<title>4</title>
<path fill="none" stroke="#56d8d0" stroke-width="2" d="M659.84,-252C659.84,-252 602.59,-252 602.59,-252 596.59,-252 590.59,-246 590.59,-240 590.59,-240 590.59,-228 590.59,-228 590.59,-222 596.59,-216 602.59,-216 602.59,-216 659.84,-216 659.84,-216 665.84,-216 671.84,-222 671.84,-228 671.84,-228 671.84,-240 671.84,-240 671.84,-246 665.84,-252 659.84,-252"/>
<text xml:space="preserve" text-anchor="middle" x="631.22" y="-230.88" font-family="sans" font-size="10.00">run_checkm2</text>
</g>
<!-- 4&#45;&gt;0 -->
<g id="edge4" class="edge">
<title>4&#45;&gt;0</title>
<path fill="none" stroke="grey" stroke-width="2" d="M589.73,-217.75C587.21,-217.09 584.69,-216.5 582.22,-216 519.35,-203.37 50.12,-226.74 6.22,-180 -4.74,-168.34 1.66,-159.34 6.22,-144 17.12,-107.37 20.22,-91.27 53.22,-72 120.84,-32.51 676.31,-21.76 831.87,-19.51"/>
<polygon fill="grey" stroke="grey" stroke-width="2" points="831.45,-23.02 841.4,-19.38 831.35,-16.02 831.45,-23.02"/>
</g>
<!-- 4&#45;&gt;5 -->
<g id="edge30" class="edge">
<title>4&#45;&gt;5</title>
<path fill="none" stroke="grey" stroke-width="2" d="M589.72,-217.82C587.2,-217.14 584.68,-216.53 582.22,-216 493.44,-196.98 252.88,-227.05 175.22,-180 153.13,-166.62 138.09,-141.04 129.04,-120.72"/>
<polygon fill="grey" stroke="grey" stroke-width="2" points="132.37,-119.62 125.32,-111.71 125.9,-122.29 132.37,-119.62"/>
</g>
<!-- 4&#45;&gt;6 -->
<g id="edge32" class="edge">
<title>4&#45;&gt;6</title>
<path fill="none" stroke="grey" stroke-width="2" d="M589.71,-217.83C587.19,-217.15 584.68,-216.53 582.22,-216 496.28,-197.45 247.49,-244.94 188.22,-180 173.62,-164.01 179.64,-139.48 188.32,-120.23"/>
<polygon fill="grey" stroke="grey" stroke-width="2" points="191.36,-121.97 192.71,-111.46 185.1,-118.84 191.36,-121.97"/>
</g>
<!-- 4&#45;&gt;7 -->
<g id="edge34" class="edge">
<title>4&#45;&gt;7</title>
<path fill="none" stroke="grey" stroke-width="2" d="M589.67,-218C587.16,-217.28 584.67,-216.6 582.22,-216 530.29,-203.18 381.95,-217.92 344.22,-180 329.26,-164.96 326.51,-140.82 327.23,-121.48"/>
<polygon fill="grey" stroke="grey" stroke-width="2" points="330.71,-121.98 327.98,-111.75 323.73,-121.45 330.71,-121.98"/>
</g>
<!-- 25 -->
<g id="node26" class="node">
<title>25</title>
<path fill="none" stroke="#ced856" stroke-width="2" d="M1170.47,-108C1170.47,-108 1101.97,-108 1101.97,-108 1095.97,-108 1089.97,-102 1089.97,-96 1089.97,-96 1089.97,-84 1089.97,-84 1089.97,-78 1095.97,-72 1101.97,-72 1101.97,-72 1170.47,-72 1170.47,-72 1176.47,-72 1182.47,-78 1182.47,-84 1182.47,-84 1182.47,-96 1182.47,-96 1182.47,-102 1176.47,-108 1170.47,-108"/>
<text xml:space="preserve" text-anchor="middle" x="1136.22" y="-86.88" font-family="sans" font-size="10.00">mimag_classify</text>
</g>
<!-- 4&#45;&gt;25 -->
<g id="edge44" class="edge">
<title>4&#45;&gt;25</title>
<path fill="none" stroke="grey" stroke-width="2" d="M672.71,-228.74C767.67,-218.81 995.12,-193.91 1027.22,-180 1044.81,-172.38 1081.8,-140.65 1107.79,-117.24"/>
<polygon fill="grey" stroke="grey" stroke-width="2" points="1109.86,-120.09 1114.91,-110.77 1105.15,-114.91 1109.86,-120.09"/>
</g>
<!-- 26 -->
<g id="node27" class="node">
<title>26</title>
<path fill="none" stroke="#ced856" stroke-width="2" d="M1394.47,-108C1394.47,-108 1325.97,-108 1325.97,-108 1319.97,-108 1313.97,-102 1313.97,-96 1313.97,-96 1313.97,-84 1313.97,-84 1313.97,-78 1319.97,-72 1325.97,-72 1325.97,-72 1394.47,-72 1394.47,-72 1400.47,-72 1406.47,-78 1406.47,-84 1406.47,-84 1406.47,-96 1406.47,-96 1406.47,-102 1400.47,-108 1394.47,-108"/>
<text xml:space="preserve" text-anchor="middle" x="1360.22" y="-86.88" font-family="sans" font-size="10.00">mimag_classify</text>
</g>
<!-- 4&#45;&gt;26 -->
<g id="edge47" class="edge">
<title>4&#45;&gt;26</title>
<path fill="none" stroke="grey" stroke-width="2" d="M672.64,-228.42C704.93,-224.89 750.91,-219.96 791.22,-216 967.98,-198.62 1018.77,-229.94 1189.22,-180 1215.2,-172.39 1276.64,-138.85 1318.34,-115.2"/>
<polygon fill="grey" stroke="grey" stroke-width="2" points="1319.95,-118.31 1326.91,-110.31 1316.49,-112.23 1319.95,-118.31"/>
</g>
<!-- 27 -->
<g id="node28" class="node">
<title>27</title>
<path fill="none" stroke="#ced856" stroke-width="2" d="M697.47,-108C697.47,-108 628.97,-108 628.97,-108 622.97,-108 616.97,-102 616.97,-96 616.97,-96 616.97,-84 616.97,-84 616.97,-78 622.97,-72 628.97,-72 628.97,-72 697.47,-72 697.47,-72 703.47,-72 709.47,-78 709.47,-84 709.47,-84 709.47,-96 709.47,-96 709.47,-102 703.47,-108 697.47,-108"/>
<text xml:space="preserve" text-anchor="middle" x="663.22" y="-86.88" font-family="sans" font-size="10.00">mimag_classify</text>
</g>
<!-- 4&#45;&gt;27 -->
<g id="edge50" class="edge">
<title>4&#45;&gt;27</title>
<path fill="none" stroke="grey" stroke-width="2" d="M634.85,-215.23C638.56,-197.25 644.57,-168.64 650.22,-144 651.91,-136.61 653.82,-128.67 655.64,-121.23"/>
<polygon fill="grey" stroke="grey" stroke-width="2" points="659.02,-122.12 658.02,-111.57 652.23,-120.44 659.02,-122.12"/>
</g>
<!-- 28 -->
<g id="node29" class="node">
<title>28</title>
<path fill="none" stroke="#d87556" stroke-width="2" d="M865.22,-180C865.22,-180 789.22,-180 789.22,-180 783.22,-180 777.22,-174 777.22,-168 777.22,-168 777.22,-156 777.22,-156 777.22,-150 783.22,-144 789.22,-144 789.22,-144 865.22,-144 865.22,-144 871.22,-144 877.22,-150 877.22,-156 877.22,-156 877.22,-168 877.22,-168 877.22,-174 871.22,-180 865.22,-180"/>
<text xml:space="preserve" text-anchor="middle" x="827.22" y="-158.88" font-family="sans" font-size="10.00">collect_summary</text>
</g>
<!-- 4&#45;&gt;28 -->
<g id="edge53" class="edge">
<title>4&#45;&gt;28</title>
<path fill="none" stroke="grey" stroke-width="2" d="M672.79,-218.15C699.55,-208.6 734.83,-195.99 764.92,-185.25"/>
<polygon fill="grey" stroke="grey" stroke-width="2" points="765.93,-188.6 774.17,-181.95 763.58,-182.01 765.93,-188.6"/>
</g>
<!-- 5&#45;&gt;0 -->
<g id="edge5" class="edge">
<title>5&#45;&gt;0</title>
<path fill="none" stroke="grey" stroke-width="2" d="M153.62,-74.05C156.17,-73.27 158.71,-72.57 161.22,-72 290.27,-42.4 700.15,-25.26 831.38,-20.43"/>
<polygon fill="grey" stroke="grey" stroke-width="2" points="831.35,-23.93 841.22,-20.07 831.09,-16.93 831.35,-23.93"/>
</g>
<!-- 6&#45;&gt;0 -->
<g id="edge6" class="edge">
<title>6&#45;&gt;0</title>
<path fill="none" stroke="grey" stroke-width="2" d="M240.79,-75.51C245.26,-74.16 249.82,-72.94 254.22,-72 468.23,-26.44 731.85,-19.81 831.5,-19.02"/>
<polygon fill="grey" stroke="grey" stroke-width="2" points="831.44,-22.52 841.42,-18.96 831.4,-15.52 831.44,-22.52"/>
</g>
<!-- 7&#45;&gt;0 -->
<g id="edge7" class="edge">
<title>7&#45;&gt;0</title>
<path fill="none" stroke="grey" stroke-width="2" d="M366.81,-75.61C371.28,-74.23 375.83,-72.99 380.22,-72 544.96,-35.05 746.71,-23.6 831.56,-20.27"/>
<polygon fill="grey" stroke="grey" stroke-width="2" points="831.5,-23.77 841.36,-19.91 831.24,-16.78 831.5,-23.77"/>
</g>
<!-- 8 -->
<g id="node9" class="node">
<title>8</title>
<path fill="none" stroke="#d8bc56" stroke-width="2" d="M865.97,-252C865.97,-252 812.47,-252 812.47,-252 806.47,-252 800.47,-246 800.47,-240 800.47,-240 800.47,-228 800.47,-228 800.47,-222 806.47,-216 812.47,-216 812.47,-216 865.97,-216 865.97,-216 871.97,-216 877.97,-222 877.97,-228 877.97,-228 877.97,-240 877.97,-240 877.97,-246 871.97,-252 865.97,-252"/>
<text xml:space="preserve" text-anchor="middle" x="839.22" y="-230.88" font-family="sans" font-size="10.00">gunc_run_all</text>
</g>
<!-- 8&#45;&gt;0 -->
<g id="edge8" class="edge">
<title>8&#45;&gt;0</title>
<path fill="none" stroke="grey" stroke-width="2" d="M878.72,-221.08C885.83,-219.19 893.21,-217.4 900.22,-216 963.67,-203.28 1140.49,-222.59 1189.22,-180 1214.14,-158.22 1203.96,-140.82 1208.22,-108 1210.28,-92.13 1218.61,-84.16 1208.22,-72 1170.6,-27.99 993.49,-20.3 912.64,-19.12"/>
<polygon fill="grey" stroke="grey" stroke-width="2" points="913.14,-15.62 903.1,-19.01 913.06,-22.62 913.14,-15.62"/>
</g>
<!-- 8&#45;&gt;28 -->
<g id="edge54" class="edge">
<title>8&#45;&gt;28</title>
<path fill="none" stroke="grey" stroke-width="2" d="M836.19,-215.34C835.06,-208.75 833.75,-201.08 832.48,-193.67"/>
<polygon fill="grey" stroke="grey" stroke-width="2" points="835.94,-193.15 830.8,-183.89 829.04,-194.33 835.94,-193.15"/>
</g>
<!-- 9 -->
<g id="node10" class="node">
<title>9</title>
<path fill="none" stroke="#56d8a9" stroke-width="2" d="M1006.34,-180C1006.34,-180 952.09,-180 952.09,-180 946.09,-180 940.09,-174 940.09,-168 940.09,-168 940.09,-156 940.09,-156 940.09,-150 946.09,-144 952.09,-144 952.09,-144 1006.34,-144 1006.34,-144 1012.34,-144 1018.34,-150 1018.34,-156 1018.34,-156 1018.34,-168 1018.34,-168 1018.34,-174 1012.34,-180 1006.34,-180"/>
<text xml:space="preserve" text-anchor="middle" x="979.22" y="-158.88" font-family="sans" font-size="10.00">rrna_barrnap</text>
</g>
<!-- 9&#45;&gt;0 -->
<g id="edge9" class="edge">
<title>9&#45;&gt;0</title>
<path fill="none" stroke="grey" stroke-width="2" d="M968.16,-143.12C956.59,-124.8 937.6,-95.71 919.22,-72 912.54,-63.39 904.86,-54.39 897.67,-46.3"/>
<polygon fill="grey" stroke="grey" stroke-width="2" points="900.26,-43.96 890.96,-38.89 895.07,-48.65 900.26,-43.96"/>
</g>
<!-- 22 -->
<g id="node23" class="node">
<title>22</title>
<path fill="none" stroke="#56d88a" stroke-width="2" d="M1059.59,-108C1059.59,-108 982.84,-108 982.84,-108 976.84,-108 970.84,-102 970.84,-96 970.84,-96 970.84,-84 970.84,-84 970.84,-78 976.84,-72 982.84,-72 982.84,-72 1059.59,-72 1059.59,-72 1065.59,-72 1071.59,-78 1071.59,-84 1071.59,-84 1071.59,-96 1071.59,-96 1071.59,-102 1065.59,-108 1059.59,-108"/>
<text xml:space="preserve" text-anchor="middle" x="1021.22" y="-86.88" font-family="sans" font-size="10.00">rrna16s_diamond</text>
</g>
<!-- 9&#45;&gt;22 -->
<g id="edge41" class="edge">
<title>9&#45;&gt;22</title>
<path fill="none" stroke="grey" stroke-width="2" d="M989.82,-143.34C994.06,-136.26 999.07,-127.92 1003.82,-120"/>
<polygon fill="grey" stroke="grey" stroke-width="2" points="1006.78,-121.87 1008.92,-111.5 1000.77,-118.27 1006.78,-121.87"/>
</g>
<!-- 9&#45;&gt;25 -->
<g id="edge46" class="edge">
<title>9&#45;&gt;25</title>
<path fill="none" stroke="grey" stroke-width="2" d="M1019.24,-143.15C1039,-134.34 1063.09,-123.61 1084.25,-114.17"/>
<polygon fill="grey" stroke="grey" stroke-width="2" points="1085.52,-117.44 1093.23,-110.17 1082.67,-111.04 1085.52,-117.44"/>
</g>
<!-- 10 -->
<g id="node11" class="node">
<title>10</title>
<path fill="none" stroke="#d89c56" stroke-width="2" d="M986.97,-252C986.97,-252 921.47,-252 921.47,-252 915.47,-252 909.47,-246 909.47,-240 909.47,-240 909.47,-228 909.47,-228 909.47,-222 915.47,-216 921.47,-216 921.47,-216 986.97,-216 986.97,-216 992.97,-216 998.97,-222 998.97,-228 998.97,-228 998.97,-240 998.97,-240 998.97,-246 992.97,-252 986.97,-252"/>
<text xml:space="preserve" text-anchor="middle" x="954.22" y="-237.25" font-family="sans" font-size="10.00">gtdbtk_classify</text>
<text xml:space="preserve" text-anchor="middle" x="954.22" y="-224.5" font-family="sans" font-size="10.00">sample: MAG1</text>
</g>
<!-- 10&#45;&gt;0 -->
<g id="edge18" class="edge">
<title>10&#45;&gt;0</title>
<path fill="none" stroke="grey" stroke-width="2" d="M946.29,-215.44C941.74,-205.17 935.99,-191.92 931.22,-180 913.15,-134.81 894.1,-81.68 882.69,-49.18"/>
<polygon fill="grey" stroke="grey" stroke-width="2" points="886.03,-48.14 879.43,-39.86 879.42,-50.45 886.03,-48.14"/>
</g>
<!-- 10&#45;&gt;9 -->
<g id="edge35" class="edge">
<title>10&#45;&gt;9</title>
<path fill="none" stroke="grey" stroke-width="2" d="M960.53,-215.34C962.94,-208.59 965.76,-200.69 968.46,-193.11"/>
<polygon fill="grey" stroke="grey" stroke-width="2" points="971.74,-194.35 971.81,-183.75 965.15,-191.99 971.74,-194.35"/>
</g>
<!-- 11 -->
<g id="node12" class="node">
<title>11</title>
<path fill="none" stroke="#56c1d8" stroke-width="2" d="M976.47,-324C976.47,-324 931.97,-324 931.97,-324 925.97,-324 919.97,-318 919.97,-312 919.97,-312 919.97,-300 919.97,-300 919.97,-294 925.97,-288 931.97,-288 931.97,-288 976.47,-288 976.47,-288 982.47,-288 988.47,-294 988.47,-300 988.47,-300 988.47,-312 988.47,-312 988.47,-318 982.47,-324 976.47,-324"/>
<text xml:space="preserve" text-anchor="middle" x="954.22" y="-302.88" font-family="sans" font-size="10.00">run_gtdbtk</text>
</g>
<!-- 11&#45;&gt;10 -->
<g id="edge36" class="edge">
<title>11&#45;&gt;10</title>
<path fill="none" stroke="grey" stroke-width="2" d="M954.22,-287.34C954.22,-280.75 954.22,-273.08 954.22,-265.67"/>
<polygon fill="grey" stroke="grey" stroke-width="2" points="957.72,-265.93 954.22,-255.93 950.72,-265.93 957.72,-265.93"/>
</g>
<!-- 13 -->
<g id="node14" class="node">
<title>13</title>
<path fill="none" stroke="#d89c56" stroke-width="2" d="M1471.84,-252C1471.84,-252 1396.59,-252 1396.59,-252 1390.59,-252 1384.59,-246 1384.59,-240 1384.59,-240 1384.59,-228 1384.59,-228 1384.59,-222 1390.59,-216 1396.59,-216 1396.59,-216 1471.84,-216 1471.84,-216 1477.84,-216 1483.84,-222 1483.84,-228 1483.84,-228 1483.84,-240 1483.84,-240 1483.84,-246 1477.84,-252 1471.84,-252"/>
<text xml:space="preserve" text-anchor="middle" x="1434.22" y="-237.25" font-family="sans" font-size="10.00">gtdbtk_classify</text>
<text xml:space="preserve" text-anchor="middle" x="1434.22" y="-224.5" font-family="sans" font-size="10.00">sample: MAG209</text>
</g>
<!-- 11&#45;&gt;13 -->
<g id="edge38" class="edge">
<title>11&#45;&gt;13</title>
<path fill="none" stroke="grey" stroke-width="2" d="M989.13,-299.91C1069.5,-288.19 1268.58,-259.16 1371.05,-244.21"/>
<polygon fill="grey" stroke="grey" stroke-width="2" points="1371.27,-247.72 1380.66,-242.81 1370.26,-240.79 1371.27,-247.72"/>
</g>
<!-- 15 -->
<g id="node16" class="node">
<title>15</title>
<path fill="none" stroke="#d89c56" stroke-width="2" d="M560.84,-252C560.84,-252 485.59,-252 485.59,-252 479.59,-252 473.59,-246 473.59,-240 473.59,-240 473.59,-228 473.59,-228 473.59,-222 479.59,-216 485.59,-216 485.59,-216 560.84,-216 560.84,-216 566.84,-216 572.84,-222 572.84,-228 572.84,-228 572.84,-240 572.84,-240 572.84,-246 566.84,-252 560.84,-252"/>
<text xml:space="preserve" text-anchor="middle" x="523.22" y="-237.25" font-family="sans" font-size="10.00">gtdbtk_classify</text>
<text xml:space="preserve" text-anchor="middle" x="523.22" y="-224.5" font-family="sans" font-size="10.00">sample: MAG665</text>
</g>
<!-- 11&#45;&gt;15 -->
<g id="edge40" class="edge">
<title>11&#45;&gt;15</title>
<path fill="none" stroke="grey" stroke-width="2" d="M919.21,-301.73C854.93,-295.35 713.62,-279.65 586.38,-252.97"/>
<polygon fill="grey" stroke="grey" stroke-width="2" points="587.19,-249.56 576.68,-250.9 585.73,-256.41 587.19,-249.56"/>
</g>
<!-- 12 -->
<g id="node13" class="node">
<title>12</title>
<path fill="none" stroke="#56d8a9" stroke-width="2" d="M1461.34,-180C1461.34,-180 1407.09,-180 1407.09,-180 1401.09,-180 1395.09,-174 1395.09,-168 1395.09,-168 1395.09,-156 1395.09,-156 1395.09,-150 1401.09,-144 1407.09,-144 1407.09,-144 1461.34,-144 1461.34,-144 1467.34,-144 1473.34,-150 1473.34,-156 1473.34,-156 1473.34,-168 1473.34,-168 1473.34,-174 1467.34,-180 1461.34,-180"/>
<text xml:space="preserve" text-anchor="middle" x="1434.22" y="-158.88" font-family="sans" font-size="10.00">rrna_barrnap</text>
</g>
<!-- 12&#45;&gt;0 -->
<g id="edge10" class="edge">
<title>12&#45;&gt;0</title>
<path fill="none" stroke="grey" stroke-width="2" d="M1436.03,-143.31C1437.04,-122.87 1435.14,-89.78 1415.22,-72 1377.93,-38.7 1032.86,-24.28 913.01,-20.25"/>
<polygon fill="grey" stroke="grey" stroke-width="2" points="913.32,-16.75 903.21,-19.92 913.09,-23.75 913.32,-16.75"/>
</g>
<!-- 23 -->
<g id="node24" class="node">
<title>23</title>
<path fill="none" stroke="#56d88a" stroke-width="2" d="M1550.59,-108C1550.59,-108 1473.84,-108 1473.84,-108 1467.84,-108 1461.84,-102 1461.84,-96 1461.84,-96 1461.84,-84 1461.84,-84 1461.84,-78 1467.84,-72 1473.84,-72 1473.84,-72 1550.59,-72 1550.59,-72 1556.59,-72 1562.59,-78 1562.59,-84 1562.59,-84 1562.59,-96 1562.59,-96 1562.59,-102 1556.59,-108 1550.59,-108"/>
<text xml:space="preserve" text-anchor="middle" x="1512.22" y="-86.88" font-family="sans" font-size="10.00">rrna16s_diamond</text>
</g>
<!-- 12&#45;&gt;23 -->
<g id="edge42" class="edge">
<title>12&#45;&gt;23</title>
<path fill="none" stroke="grey" stroke-width="2" d="M1453.9,-143.34C1462.61,-135.52 1473.04,-126.16 1482.65,-117.53"/>
<polygon fill="grey" stroke="grey" stroke-width="2" points="1484.91,-120.21 1490.02,-110.92 1480.24,-115 1484.91,-120.21"/>
</g>
<!-- 12&#45;&gt;26 -->
<g id="edge49" class="edge">
<title>12&#45;&gt;26</title>
<path fill="none" stroke="grey" stroke-width="2" d="M1415.55,-143.34C1407.37,-135.6 1397.6,-126.36 1388.56,-117.81"/>
<polygon fill="grey" stroke="grey" stroke-width="2" points="1391.01,-115.31 1381.34,-110.98 1386.2,-120.4 1391.01,-115.31"/>
</g>
<!-- 13&#45;&gt;0 -->
<g id="edge19" class="edge">
<title>13&#45;&gt;0</title>
<path fill="none" stroke="grey" stroke-width="2" d="M1468.88,-215.19C1523.27,-185.04 1617.88,-122.33 1571.22,-72 1526.33,-23.58 1055.3,-19.17 912.82,-18.94"/>
<polygon fill="grey" stroke="grey" stroke-width="2" points="913.11,-15.44 903.11,-18.94 913.11,-22.44 913.11,-15.44"/>
</g>
<!-- 13&#45;&gt;12 -->
<g id="edge37" class="edge">
<title>13&#45;&gt;12</title>
<path fill="none" stroke="grey" stroke-width="2" d="M1434.22,-215.34C1434.22,-208.75 1434.22,-201.08 1434.22,-193.67"/>
<polygon fill="grey" stroke="grey" stroke-width="2" points="1437.72,-193.93 1434.22,-183.93 1430.72,-193.93 1437.72,-193.93"/>
</g>
<!-- 14 -->
<g id="node15" class="node">
<title>14</title>
<path fill="none" stroke="#56d8a9" stroke-width="2" d="M575.34,-180C575.34,-180 521.09,-180 521.09,-180 515.09,-180 509.09,-174 509.09,-168 509.09,-168 509.09,-156 509.09,-156 509.09,-150 515.09,-144 521.09,-144 521.09,-144 575.34,-144 575.34,-144 581.34,-144 587.34,-150 587.34,-156 587.34,-156 587.34,-168 587.34,-168 587.34,-174 581.34,-180 575.34,-180"/>
<text xml:space="preserve" text-anchor="middle" x="548.22" y="-158.88" font-family="sans" font-size="10.00">rrna_barrnap</text>
</g>
<!-- 14&#45;&gt;0 -->
<g id="edge11" class="edge">
<title>14&#45;&gt;0</title>
<path fill="none" stroke="grey" stroke-width="2" d="M522.66,-143.32C498.72,-124.64 469.37,-94.78 489.22,-72 533.31,-21.39 742.24,-17.51 831.56,-18.23"/>
<polygon fill="grey" stroke="grey" stroke-width="2" points="831.27,-21.73 841.31,-18.34 831.35,-14.73 831.27,-21.73"/>
</g>
<!-- 24 -->
<g id="node25" class="node">
<title>24</title>
<path fill="none" stroke="#56d88a" stroke-width="2" d="M586.59,-108C586.59,-108 509.84,-108 509.84,-108 503.84,-108 497.84,-102 497.84,-96 497.84,-96 497.84,-84 497.84,-84 497.84,-78 503.84,-72 509.84,-72 509.84,-72 586.59,-72 586.59,-72 592.59,-72 598.59,-78 598.59,-84 598.59,-84 598.59,-96 598.59,-96 598.59,-102 592.59,-108 586.59,-108"/>
<text xml:space="preserve" text-anchor="middle" x="548.22" y="-86.88" font-family="sans" font-size="10.00">rrna16s_diamond</text>
</g>
<!-- 14&#45;&gt;24 -->
<g id="edge43" class="edge">
<title>14&#45;&gt;24</title>
<path fill="none" stroke="grey" stroke-width="2" d="M548.22,-143.34C548.22,-136.75 548.22,-129.08 548.22,-121.67"/>
<polygon fill="grey" stroke="grey" stroke-width="2" points="551.72,-121.93 548.22,-111.93 544.72,-121.93 551.72,-121.93"/>
</g>
<!-- 14&#45;&gt;27 -->
<g id="edge52" class="edge">
<title>14&#45;&gt;27</title>
<path fill="none" stroke="grey" stroke-width="2" d="M577.54,-143.15C591.32,-134.76 607.98,-124.62 622.93,-115.52"/>
<polygon fill="grey" stroke="grey" stroke-width="2" points="624.65,-118.58 631.37,-110.39 621.01,-112.6 624.65,-118.58"/>
</g>
<!-- 15&#45;&gt;0 -->
<g id="edge20" class="edge">
<title>15&#45;&gt;0</title>
<path fill="none" stroke="grey" stroke-width="2" d="M508.93,-215.2C484.74,-182.81 441.73,-113.73 478.22,-72 501.27,-45.63 735.48,-27.76 831.49,-21.49"/>
<polygon fill="grey" stroke="grey" stroke-width="2" points="831.57,-24.99 841.33,-20.85 831.13,-18 831.57,-24.99"/>
</g>
<!-- 15&#45;&gt;14 -->
<g id="edge39" class="edge">
<title>15&#45;&gt;14</title>
<path fill="none" stroke="grey" stroke-width="2" d="M529.53,-215.34C531.94,-208.59 534.76,-200.69 537.46,-193.11"/>
<polygon fill="grey" stroke="grey" stroke-width="2" points="540.74,-194.35 540.81,-183.75 534.15,-191.99 540.74,-194.35"/>
</g>
<!-- 16 -->
<g id="node17" class="node">
<title>16</title>
<path fill="none" stroke="#567bd8" stroke-width="2" d="M1167.84,-180C1167.84,-180 1104.59,-180 1104.59,-180 1098.59,-180 1092.59,-174 1092.59,-168 1092.59,-168 1092.59,-156 1092.59,-156 1092.59,-150 1098.59,-144 1104.59,-144 1104.59,-144 1167.84,-144 1167.84,-144 1173.84,-144 1179.84,-150 1179.84,-156 1179.84,-156 1179.84,-168 1179.84,-168 1179.84,-174 1173.84,-180 1167.84,-180"/>
<text xml:space="preserve" text-anchor="middle" x="1136.22" y="-165.25" font-family="sans" font-size="10.00">trna_scan</text>
<text xml:space="preserve" text-anchor="middle" x="1136.22" y="-152.5" font-family="sans" font-size="10.00">sample: MAG1</text>
</g>
<!-- 16&#45;&gt;0 -->
<g id="edge12" class="edge">
<title>16&#45;&gt;0</title>
<path fill="none" stroke="grey" stroke-width="2" d="M1160.3,-143.24C1182.83,-124.49 1210.36,-94.59 1191.22,-72 1155.96,-30.4 990.52,-21.42 912.78,-19.5"/>
<polygon fill="grey" stroke="grey" stroke-width="2" points="913.31,-16.01 903.23,-19.3 913.16,-23.01 913.31,-16.01"/>
</g>
<!-- 16&#45;&gt;25 -->
<g id="edge45" class="edge">
<title>16&#45;&gt;25</title>
<path fill="none" stroke="grey" stroke-width="2" d="M1136.22,-143.34C1136.22,-136.75 1136.22,-129.08 1136.22,-121.67"/>
<polygon fill="grey" stroke="grey" stroke-width="2" points="1139.72,-121.93 1136.22,-111.93 1132.72,-121.93 1139.72,-121.93"/>
</g>
<!-- 17 -->
<g id="node18" class="node">
<title>17</title>
<path fill="none" stroke="#567bd8" stroke-width="2" d="M1364.84,-180C1364.84,-180 1289.59,-180 1289.59,-180 1283.59,-180 1277.59,-174 1277.59,-168 1277.59,-168 1277.59,-156 1277.59,-156 1277.59,-150 1283.59,-144 1289.59,-144 1289.59,-144 1364.84,-144 1364.84,-144 1370.84,-144 1376.84,-150 1376.84,-156 1376.84,-156 1376.84,-168 1376.84,-168 1376.84,-174 1370.84,-180 1364.84,-180"/>
<text xml:space="preserve" text-anchor="middle" x="1327.22" y="-165.25" font-family="sans" font-size="10.00">trna_scan</text>
<text xml:space="preserve" text-anchor="middle" x="1327.22" y="-152.5" font-family="sans" font-size="10.00">sample: MAG209</text>
</g>
<!-- 17&#45;&gt;0 -->
<g id="edge13" class="edge">
<title>17&#45;&gt;0</title>
<path fill="none" stroke="grey" stroke-width="2" d="M1319.6,-143.25C1309.65,-122.44 1290.16,-88.65 1262.22,-72 1203.8,-37.18 1000.41,-24.46 912.84,-20.53"/>
<polygon fill="grey" stroke="grey" stroke-width="2" points="913.23,-17.04 903.09,-20.11 912.93,-24.04 913.23,-17.04"/>
</g>
<!-- 17&#45;&gt;26 -->
<g id="edge48" class="edge">
<title>17&#45;&gt;26</title>
<path fill="none" stroke="grey" stroke-width="2" d="M1335.55,-143.34C1338.8,-136.43 1342.63,-128.31 1346.28,-120.56"/>
<polygon fill="grey" stroke="grey" stroke-width="2" points="1349.39,-122.18 1350.49,-111.64 1343.06,-119.19 1349.39,-122.18"/>
</g>
<!-- 18 -->
<g id="node19" class="node">
<title>18</title>
<path fill="none" stroke="#567bd8" stroke-width="2" d="M746.84,-180C746.84,-180 671.59,-180 671.59,-180 665.59,-180 659.59,-174 659.59,-168 659.59,-168 659.59,-156 659.59,-156 659.59,-150 665.59,-144 671.59,-144 671.59,-144 746.84,-144 746.84,-144 752.84,-144 758.84,-150 758.84,-156 758.84,-156 758.84,-168 758.84,-168 758.84,-174 752.84,-180 746.84,-180"/>
<text xml:space="preserve" text-anchor="middle" x="709.22" y="-165.25" font-family="sans" font-size="10.00">trna_scan</text>
<text xml:space="preserve" text-anchor="middle" x="709.22" y="-152.5" font-family="sans" font-size="10.00">sample: MAG665</text>
</g>
<!-- 18&#45;&gt;0 -->
<g id="edge14" class="edge">
<title>18&#45;&gt;0</title>
<path fill="none" stroke="grey" stroke-width="2" d="M722.02,-143.19C736.27,-124.13 760.7,-93.71 786.22,-72 800.48,-59.86 817.81,-48.63 833.16,-39.66"/>
<polygon fill="grey" stroke="grey" stroke-width="2" points="834.83,-42.74 841.8,-34.76 831.38,-36.65 834.83,-42.74"/>
</g>
<!-- 18&#45;&gt;27 -->
<g id="edge51" class="edge">
<title>18&#45;&gt;27</title>
<path fill="none" stroke="grey" stroke-width="2" d="M697.61,-143.34C692.91,-136.18 687.35,-127.73 682.1,-119.73"/>
<polygon fill="grey" stroke="grey" stroke-width="2" points="685.06,-117.87 676.65,-111.43 679.21,-121.71 685.06,-117.87"/>
</g>
<!-- 19 -->
<g id="node20" class="node">
<title>19</title>
<path fill="none" stroke="#afd856" stroke-width="2" d="M1693.84,-108C1693.84,-108 1630.59,-108 1630.59,-108 1624.59,-108 1618.59,-102 1618.59,-96 1618.59,-96 1618.59,-84 1618.59,-84 1618.59,-78 1624.59,-72 1630.59,-72 1630.59,-72 1693.84,-72 1693.84,-72 1699.84,-72 1705.84,-78 1705.84,-84 1705.84,-84 1705.84,-96 1705.84,-96 1705.84,-102 1699.84,-108 1693.84,-108"/>
<text xml:space="preserve" text-anchor="middle" x="1662.22" y="-93.25" font-family="sans" font-size="10.00">orfs_prodigal</text>
<text xml:space="preserve" text-anchor="middle" x="1662.22" y="-80.5" font-family="sans" font-size="10.00">sample: MAG1</text>
</g>
<!-- 19&#45;&gt;0 -->
<g id="edge15" class="edge">
<title>19&#45;&gt;0</title>
<path fill="none" stroke="grey" stroke-width="2" d="M1617.8,-74.94C1613.24,-73.81 1608.66,-72.8 1604.22,-72 1343.93,-24.98 1024.44,-19.37 912.92,-18.93"/>
<polygon fill="grey" stroke="grey" stroke-width="2" points="913.11,-15.43 903.1,-18.9 913.09,-22.43 913.11,-15.43"/>
</g>
<!-- 20 -->
<g id="node21" class="node">
<title>20</title>
<path fill="none" stroke="#afd856" stroke-width="2" d="M1810.84,-108C1810.84,-108 1735.59,-108 1735.59,-108 1729.59,-108 1723.59,-102 1723.59,-96 1723.59,-96 1723.59,-84 1723.59,-84 1723.59,-78 1729.59,-72 1735.59,-72 1735.59,-72 1810.84,-72 1810.84,-72 1816.84,-72 1822.84,-78 1822.84,-84 1822.84,-84 1822.84,-96 1822.84,-96 1822.84,-102 1816.84,-108 1810.84,-108"/>
<text xml:space="preserve" text-anchor="middle" x="1773.22" y="-93.25" font-family="sans" font-size="10.00">orfs_prodigal</text>
<text xml:space="preserve" text-anchor="middle" x="1773.22" y="-80.5" font-family="sans" font-size="10.00">sample: MAG209</text>
</g>
<!-- 20&#45;&gt;0 -->
<g id="edge16" class="edge">
<title>20&#45;&gt;0</title>
<path fill="none" stroke="grey" stroke-width="2" d="M1722.76,-73.49C1720.22,-72.94 1717.7,-72.44 1715.22,-72 1410.35,-18.42 1035.09,-17.17 912.8,-18.37"/>
<polygon fill="grey" stroke="grey" stroke-width="2" points="913.12,-14.87 903.16,-18.48 913.2,-21.87 913.12,-14.87"/>
</g>
<!-- 21 -->
<g id="node22" class="node">
<title>21</title>
<path fill="none" stroke="#afd856" stroke-width="2" d="M1927.84,-108C1927.84,-108 1852.59,-108 1852.59,-108 1846.59,-108 1840.59,-102 1840.59,-96 1840.59,-96 1840.59,-84 1840.59,-84 1840.59,-78 1846.59,-72 1852.59,-72 1852.59,-72 1927.84,-72 1927.84,-72 1933.84,-72 1939.84,-78 1939.84,-84 1939.84,-84 1939.84,-96 1939.84,-96 1939.84,-102 1933.84,-108 1927.84,-108"/>
<text xml:space="preserve" text-anchor="middle" x="1890.22" y="-93.25" font-family="sans" font-size="10.00">orfs_prodigal</text>
<text xml:space="preserve" text-anchor="middle" x="1890.22" y="-80.5" font-family="sans" font-size="10.00">sample: MAG665</text>
</g>
<!-- 21&#45;&gt;0 -->
<g id="edge17" class="edge">
<title>21&#45;&gt;0</title>
<path fill="none" stroke="grey" stroke-width="2" d="M1839.77,-73.47C1837.23,-72.92 1834.7,-72.43 1832.22,-72 1651.19,-40.9 1071.89,-24.1 912.91,-20"/>
<polygon fill="grey" stroke="grey" stroke-width="2" points="913.21,-16.51 903.13,-19.75 913.04,-23.5 913.21,-16.51"/>
</g>
<!-- 22&#45;&gt;0 -->
<g id="edge21" class="edge">
<title>22&#45;&gt;0</title>
<path fill="none" stroke="grey" stroke-width="2" d="M983.23,-71.15C961.26,-60.83 933.67,-47.87 911.48,-37.45"/>
<polygon fill="grey" stroke="grey" stroke-width="2" points="913.06,-34.32 902.52,-33.24 910.09,-40.66 913.06,-34.32"/>
</g>
<!-- 23&#45;&gt;0 -->
<g id="edge22" class="edge">
<title>23&#45;&gt;0</title>
<path fill="none" stroke="grey" stroke-width="2" d="M1461.04,-74.6C1456.72,-73.63 1452.41,-72.74 1448.22,-72 1249.37,-36.7 1007.47,-24.15 912.88,-20.4"/>
<polygon fill="grey" stroke="grey" stroke-width="2" points="913.17,-16.9 903.04,-20.02 912.9,-23.9 913.17,-16.9"/>
</g>
<!-- 24&#45;&gt;0 -->
<g id="edge23" class="edge">
<title>24&#45;&gt;0</title>
<path fill="none" stroke="grey" stroke-width="2" d="M599.54,-74.18C602.47,-73.42 605.38,-72.69 608.22,-72 686.8,-53.01 779.7,-35.49 831.7,-26.12"/>
<polygon fill="grey" stroke="grey" stroke-width="2" points="832.11,-29.6 841.34,-24.4 830.88,-22.71 832.11,-29.6"/>
</g>
<!-- 25&#45;&gt;0 -->
<g id="edge24" class="edge">
<title>25&#45;&gt;0</title>
<path fill="none" stroke="grey" stroke-width="2" d="M1089.21,-74.56C1086.17,-73.68 1083.15,-72.82 1080.22,-72 1022.12,-55.79 954.33,-38.89 912.34,-28.65"/>
<polygon fill="grey" stroke="grey" stroke-width="2" points="913.4,-25.31 902.86,-26.35 911.75,-32.11 913.4,-25.31"/>
</g>
<!-- 26&#45;&gt;0 -->
<g id="edge25" class="edge">
<title>26&#45;&gt;0</title>
<path fill="none" stroke="grey" stroke-width="2" d="M1313.22,-74.95C1308.85,-73.86 1304.46,-72.86 1300.22,-72 1159.34,-43.49 989.07,-27.94 912.71,-21.94"/>
<polygon fill="grey" stroke="grey" stroke-width="2" points="913.25,-18.47 903.01,-21.19 912.71,-25.45 913.25,-18.47"/>
</g>
<!-- 27&#45;&gt;0 -->
<g id="edge26" class="edge">
<title>27&#45;&gt;0</title>
<path fill="none" stroke="grey" stroke-width="2" d="M710.38,-73.2C747.16,-60.89 797.66,-43.97 832.42,-32.33"/>
<polygon fill="grey" stroke="grey" stroke-width="2" points="833.22,-35.75 841.59,-29.26 831,-29.12 833.22,-35.75"/>
</g>
<!-- 28&#45;&gt;0 -->
<g id="edge27" class="edge">
<title>28&#45;&gt;0</title>
<path fill="none" stroke="grey" stroke-width="2" d="M811.83,-143.01C798.06,-124.6 781.8,-95.45 794.22,-72 802.64,-56.09 818.22,-44.07 833.26,-35.53"/>
<polygon fill="grey" stroke="grey" stroke-width="2" points="834.58,-38.79 841.83,-31.07 831.35,-32.58 834.58,-38.79"/>
</g>
<!-- 29 -->
<g id="node30" class="node">
<title>29</title>
<path fill="none" stroke="#56d86b" stroke-width="2" d="M864.72,-108C864.72,-108 815.72,-108 815.72,-108 809.72,-108 803.72,-102 803.72,-96 803.72,-96 803.72,-84 803.72,-84 803.72,-78 809.72,-72 815.72,-72 815.72,-72 864.72,-72 864.72,-72 870.72,-72 876.72,-78 876.72,-84 876.72,-84 876.72,-96 876.72,-96 876.72,-102 870.72,-108 864.72,-108"/>
<text xml:space="preserve" text-anchor="middle" x="840.22" y="-86.88" font-family="sans" font-size="10.00">report_html</text>
</g>
<!-- 28&#45;&gt;29 -->
<g id="edge55" class="edge">
<title>28&#45;&gt;29</title>
<path fill="none" stroke="grey" stroke-width="2" d="M830.5,-143.34C831.72,-136.75 833.15,-129.08 834.52,-121.67"/>
<polygon fill="grey" stroke="grey" stroke-width="2" points="837.96,-122.35 836.34,-111.88 831.07,-121.07 837.96,-122.35"/>
</g>
<!-- 29&#45;&gt;0 -->
<g id="edge28" class="edge">
<title>29&#45;&gt;0</title>
<path fill="none" stroke="grey" stroke-width="2" d="M848.29,-71.34C851.45,-64.43 855.16,-56.31 858.71,-48.56"/>
<polygon fill="grey" stroke="grey" stroke-width="2" points="861.8,-50.2 862.78,-39.65 855.44,-47.29 861.8,-50.2"/>
</g>
</g>
</svg>
